$MeshFormat
2.2 0 8
$EndMeshFormat
$Nodes
341
1 0 0 0
2 1 0 0
3 1 1 0
4 0 1 0
5 0.09999999999981467 0 0
6 0.1999999999995579 0 0
7 0.2999999999992664 0 0
8 0.3999999999989749 0 0
9 0.4999999999986943 0 0
10 0.5999999999989468 0 0
11 0.69999999999921 0 0
12 0.7999999999994734 0 0
13 0.8999999999997368 0 0
14 0.04999999999989927 0 0
15 0.1499999999997036 0 0
16 0.2499999999994121 0 0
17 0.3499999999991207 0 0
18 0.4499999999988346 0 0
19 0.5499999999988205 0 0
20 0.6499999999990784 0 0
21 0.7499999999993416 0 0
22 0.8499999999996051 0 0
23 0.9499999999998684 0 0
24 1 0.09999999999981467 0
25 1 0.1999999999995579 0
26 1 0.2999999999992664 0
27 1 0.3999999999989749 0
28 1 0.4999999999986943 0
29 1 0.5999999999989468 0
30 1 0.69999999999921 0
31 1 0.7999999999994734 0
32 1 0.8999999999997368 0
33 1 0.04999999999989927 0
34 1 0.1499999999997036 0
35 1 0.2499999999994121 0
36 1 0.3499999999991207 0
37 1 0.4499999999988346 0
38 1 0.5499999999988205 0
39 1 0.6499999999990784 0
40 1 0.7499999999993416 0
41 1 0.8499999999996051 0
42 1 0.9499999999998684 0
43 0.8999999999995836 1 0
44 0.7999999999999998 1 0
45 0.7000000000006934 1 0
46 0.6000000000013869 1 0
47 0.5000000000020587 1 0
48 0.4000000000016644 1 0
49 0.3000000000012483 1 0
50 0.2000000000008322 1 0
51 0.100000000000416 1 0
52 0.9499999999998356 1 0
53 0.8499999999998515 1 0
54 0.7500000000003858 1 0
55 0.6500000000010593 1 0
56 0.5500000000016854 1 0
57 0.4500000000018616 1 0
58 0.3500000000014563 1 0
59 0.2500000000010403 1 0
60 0.1500000000006241 1 0
61 0.05000000000020799 1 0
62 0 0.8999999999995836 0
63 0 0.7999999999999998 0
64 0 0.7000000000006934 0
65 0 0.6000000000013869 0
66 0 0.5000000000020587 0
67 0 0.4000000000016644 0
68 0 0.3000000000012483 0
69 0 0.2000000000008322 0
70 0 0.100000000000416 0
71 0 0.9499999999998356 0
72 0 0.8499999999998515 0
73 0 0.7500000000003858 0
74 0 0.6500000000010593 0
75 0 0.5500000000016854 0
76 0 0.4500000000018616 0
77 0 0.3500000000014563 0
78 0 0.2500000000010403 0
79 0 0.1500000000006241 0
80 0 0.05000000000020799 0
81 0.3999999988989827 0.8999999988987563 0
82 0.9000000000001462 0.4999999999991815 0
83 0.4999786212342917 0.09997862123502414 0
84 0.5999999998879457 0.8999999998874293 0
85 0.09997982640994811 0.499979826411531 0
86 0.09999999718155865 0.7999999971821096 0
87 0.900000000000051 0.6999999999994997 0
88 0.09953749690515025 0.299537496906057 0
89 0.7999999999997147 0.09999999999988456 0
90 0.2995305510765021 0.09953055107702066 0
91 0.09898714674874137 0.1989871467493608 0
92 0.9000000000000492 0.7999999999997215 0
93 0.199999999736063 0.8999999997361001 0
94 0.8000000000001868 0.900000000000028 0
95 0.1990369303928916 0.0990369303933194 0
96 0.9000000000000309 0.1999999999996093 0
97 0.09999999961476522 0.8999999996147414 0
98 0.8999999999999828 0.8999999999998808 0
99 0.6999998202480624 0.09999982024849211 0
100 0.09999980980934429 0.6999998098105069 0
101 0.9000000000001261 0.2999999999993911 0
102 0.8999999999998792 0.09999999999982549 0
103 0.09919172538829332 0.09919172538869807 0
104 0.7999999997563279 0.6999999997559182 0
105 0.2999999991908528 0.8999999991908473 0
106 0.7999999999453465 0.7999999999450755 0
107 0.1992810551962849 0.1992810551967246 0
108 0.6999994586160109 0.1999994586159706 0
109 0.7999998902261611 0.1999998902258995 0
110 0.5999959833616118 0.09999598336223549 0
111 0.499999999197826 0.8999999991973929 0
112 0.09999619966139309 0.5999961996629313 0
113 0.09987790333118321 0.399877903332461 0
114 0.8999999999848639 0.5999999999840568 0
115 0.9000000000001641 0.3999999999992269 0
116 0.6999999999704881 0.8999999999701076 0
117 0.1999999775982742 0.7999999775992163 0
118 0.399873727364183 0.09987372736483079 0
119 0.1999626870163994 0.4999626870177873 0
120 0.4999616677675075 0.1999616677677436 0
121 0.499999978731674 0.7999999787323556 0
122 0.2999999673035563 0.7999999673046901 0
123 0.1996026993094094 0.2996026993099737 0
124 0.6999999994692411 0.7999999994690857 0
125 0.7999999455358997 0.399999945535029 0
126 0.7999999976540637 0.5999999976534126 0
127 0.5999916263215741 0.199991626321697 0
128 0.7999998730517655 0.2999998730511403 0
129 0.1999992074994651 0.699999207501005 0
130 0.2996016545298116 0.199601654530136 0
131 0.4999676454685792 0.2999676454683885 0
132 0.2999991184524159 0.6999991184541348 0
133 0.2997592132573383 0.2997592132576143 0
134 0.3999999006912296 0.7999999006921797 0
135 0.7999999780550822 0.4999999780542431 0
136 0.1999913395891324 0.5999913395907606 0
137 0.1998426757911348 0.3998426757920518 0
138 0.6999999076118252 0.5999999076113965 0
139 0.6999999851907999 0.6999999851906414 0
140 0.5999909895195935 0.2999909895192442 0
141 0.6999989636913097 0.3999989636905661 0
142 0.3998382163813111 0.199838216381603 0
143 0.5999999942666321 0.7999999942667914 0
144 0.6999978702421737 0.2999978702417126 0
145 0.4999997818482081 0.6999997818491979 0
146 0.5999995029450366 0.5999995029450408 0
147 0.4999802836866233 0.3999802836863194 0
148 0.2999646340136068 0.499964634014674 0
149 0.5999998805748269 0.6999998805751061 0
150 0.299884250933102 0.3998842509336322 0
151 0.2999900614656491 0.5999900614671958 0
152 0.6999995175815188 0.499999517580863 0
153 0.5999931383290191 0.399993138328512 0
154 0.399880767650608 0.2998807676506933 0
155 0.3999988783556871 0.6999988783570508 0
156 0.499998143512115 0.599998143512668 0
157 0.3999938182647114 0.5999938182657714 0
158 0.3999762869618471 0.4999762869623487 0
159 0.4999894012833955 0.4999894012834266 0
160 0.5999959499888146 0.4999959499884981 0
161 0.3999336943327372 0.3999336943329199 0
162 0.3999850526132792 0.5499850526140601 0
163 0.4499828441226213 0.4999828441228876 0
164 0.4999937723977552 0.5499937723980473 0
165 0.4499959808884132 0.5999959808892197 0
166 0.4999989626801615 0.6499989626809329 0
167 0.5499988232285757 0.5999988232288544 0
168 0.5999996917599317 0.6499996917600734 0
169 0.5499998312115175 0.699999831212152 0
170 0.3499919398651802 0.5999919398664836 0
171 0.299977347739628 0.5499773477409349 0
172 0.349970460487727 0.4999704604885113 0
173 0.3999549906472921 0.4499549906476343 0
174 0.4499569890096803 0.3999569890096197 0
175 0.4999848424850094 0.449984842484873 0
176 0.5499926756361051 0.4999926756359624 0
177 0.5999977264669256 0.5499977264667695 0
178 0.1491143278905925 0.09911432789100874 0
179 0.1991589927945882 0.149158992795022 0
180 0.1491341009725131 0.1991341009730427 0
181 0.09908943606851735 0.1490894360690294 0
182 0.6999986644290923 0.2499986644288416 0
183 0.7499996744210859 0.199999674420935 0
184 0.7999998816389633 0.2499998816385199 0
185 0.7499988716469697 0.2999988716464265 0
186 0.5499867110078211 0.3999867110074157 0
187 0.5999945441589168 0.449994544158505 0
188 0.2499907005273908 0.5999907005289782 0
189 0.1999770133027659 0.549977013304274 0
190 0.2499636605150031 0.4999636605162306 0
191 0.3499999990449177 0.8999999990448018 0
192 0.3999999994503236 0.9499999994493782 0
193 0.2999999995960505 0.9499999995954236 0
194 0.2999244424733544 0.4499244424741531 0
195 0.1999026814037671 0.4499026814049195 0
196 0.2498634633621184 0.399863463362842 0
197 0.5499766470445409 0.1999766470447203 0
198 0.4999701445008996 0.1499701445013839 0
199 0.5499873022979518 0.09998730229862982 0
200 0.5999938048415929 0.1499938048419662 0
201 0.4499993301019476 0.6999993301031243 0
202 0.3999963483101993 0.6499963483114111 0
203 0.4499999990484044 0.8999999990480746 0
204 0.4999999995999423 0.9499999995986965 0
205 0.1499712567131738 0.4999712567146591 0
206 0.09992886487056565 0.449928864871996 0
207 0.149860289561159 0.3998602895622564 0
208 0.4499999397114518 0.7999999397122677 0
209 0.49999998896475 0.8499999889648743 0
210 0.3999999497951062 0.849999949795468 0
211 0.1499937696252627 0.5999937696268459 0
212 0.09998801303567059 0.5499880130372311 0
213 0.9500000000000246 0.7999999999995975 0
214 0.9499999999999914 0.8999999999998087 0
215 0.900000000000016 0.8499999999998011 0
216 0.1499999996754141 0.8999999996754208 0
217 0.09999999839816193 0.8499999983984254 0
218 0.1499999873899164 0.7999999873906629 0
219 0.1999999886671686 0.8499999886676581 0
220 0.7999999998508371 0.7499999998504969 0
221 0.8499999998781894 0.6999999998777089 0
222 0.9000000000000501 0.7499999999996105 0
223 0.8499999999726979 0.7999999999723986 0
224 0.0499389516655916 0.3999389516670627 0
225 0.04998991320497406 0.4999899132067949 0
226 0.8500000000000848 0.8999999999999544 0
227 0.7999999999727667 0.8499999999725518 0
228 0.6999999997198646 0.8499999997195966 0
229 0.649999999929217 0.8999999999287684 0
230 0.5999999970772889 0.8499999970771104 0
231 0.6499999968679366 0.7999999968679385 0
232 0.499989310616493 0.04998931061751207 0
233 0.5999979916802793 0.04999799168111774 0
234 0.799999999999594 0.04999999999994228 0
235 0.8999999999998081 0.04999999999991275 0
236 0.8499999999997969 0.09999999999985502 0
237 0.6999996394320367 0.1499996394322313 0
238 0.7499999101238886 0.09999991012418832 0
239 0.7999999451129379 0.149999945112892 0
240 0.2499999994634579 0.8999999994634738 0
241 0.1999999998684476 0.9499999998680501 0
242 0.09970770011816674 0.349707700119259 0
243 0.04976874845257512 0.2997687484536526 0
244 0.949999999992432 0.5999999999915018 0
245 0.899999999992505 0.5499999999916192 0
246 0.9500000000000731 0.4999999999989378 0
247 0.1495700981072798 0.2995700981080154 0
248 0.1997226875502721 0.3497226875510128 0
249 0.7999999617954909 0.4499999617946361 0
250 0.8499999727680319 0.399999972767128 0
251 0.9000000000001551 0.4499999999992042 0
252 0.8499999890276142 0.4999999890267123 0
253 0.7499997478183005 0.4999997478175531 0
254 0.6999992406364142 0.4499992406357146 0
255 0.7499994546136046 0.3999994546127976 0
256 0.1994418772528471 0.2494418772533492 0
257 0.0992623218269458 0.2492623218277089 0
258 0.7499999997072938 0.7999999997070806 0
259 0.7499999999853375 0.8999999999850679 0
260 0.0999999998075906 0.9499999998073707 0
261 0.04999999980738261 0.8999999998071625 0
262 0.04999999859077933 0.7999999985910546 0
263 0.7999999878545729 0.5499999878538279 0
264 0.7499999526329444 0.5999999526324046 0
265 0.6999997125966719 0.5499997125961298 0
266 0.3999072309916726 0.3499072309918067 0
267 0.4499242065595936 0.2999242065595409 0
268 0.4999739645776012 0.349973964577354 0
269 0.5999999374207294 0.7499999374209487 0
270 0.6499999328828134 0.6999999328828738 0
271 0.6999999923300204 0.7499999923298636 0
272 0.6499979018048371 0.0999979018053638 0
273 0.6499955424687924 0.1999955424688338 0
274 0.7999999092938326 0.3499999092930847 0
275 0.6999984169667417 0.3499984169661394 0
276 0.8999999999924575 0.6499999999917783 0
277 0.9500000000000255 0.6999999999993549 0
278 0.7999999987051958 0.6499999987046654 0
279 0.8499999988194638 0.5999999988187348 0
280 0.549999986499153 0.7999999864995735 0
281 0.499999880289941 0.7499998802907768 0
282 0.6999999101236363 0.04999991012424605 0
283 0.9499999999999396 0.09999999999982008 0
284 0.5499793174940864 0.2999793174938163 0
285 0.5999920639243064 0.349992063923878 0
286 0.8999999999997832 0.9499999999999404 0
287 0.3998594920159596 0.2498594920161482 0
288 0.4498999420744093 0.1998999420746733 0
289 0.4999646566180433 0.2499646566180661 0
290 0.399855971872747 0.1498559718732169 0
291 0.4499261742992374 0.09992617429992746 0
292 0.6499997052784309 0.5999997052782187 0
293 0.6999999464013125 0.649999946401019 0
294 0.8000000000000933 0.9500000000000139 0
295 0.2998217320952202 0.3498217320956233 0
296 0.2496809562833739 0.299680956283794 0
297 0.04949357337437069 0.1994935733750965 0
298 0.5999913079205839 0.2499913079204706 0
299 0.7499999924735639 0.6999999924732798 0
300 0.3499089726329196 0.3999089726332761 0
301 0.6499944298808836 0.2999944298804784 0
302 0.04959586269414666 0.09959586269455703 0
303 0.2499999724509153 0.7999999724519532 0
304 0.1999995925488696 0.7499995925501106 0
305 0.2499991629759405 0.6999991629775699 0
306 0.2999995428779861 0.7499995428794124 0
307 0.8499999365259459 0.2999999365252657 0
308 0.9000000000001451 0.349999999999309 0
309 0.9500000000000821 0.3999999999991009 0
310 0.2999999832472046 0.8499999832477687 0
311 0.3499999339973929 0.7999999339984349 0
312 0.6499960510101643 0.3999960510095391 0
313 0.6499977337851667 0.4999977337846805 0
314 0.3498199904539732 0.2998199904541538 0
315 0.6999999999855908 0.9499999999850538 0
316 0.399936863681579 0.04993686368241539 0
317 0.5499999995428859 0.8999999995424111 0
318 0.04999809983069654 0.599998099832159 0
319 0.849999945113096 0.1999999451127544 0
320 0.9000000000000785 0.2499999999995002 0
321 0.3499989984040515 0.6999989984055928 0
322 0.2999945899590325 0.6499945899606653 0
323 0.5999999999446664 0.9499999999437146 0
324 0.09999800473536868 0.6499980047367191 0
325 0.1999952735442987 0.6499952735458827 0
326 0.1499995086544047 0.699999508655756 0
327 0.04999990490467215 0.6999999049056002 0
328 0.09999990349545147 0.7499999034963083 0
329 0.3497199354555613 0.1997199354558695 0
330 0.299680433893575 0.2496804338938751 0
331 0.3999993895234584 0.7499993895246153 0
332 0.2995661028031568 0.1495661028035783 0
333 0.3497021392203425 0.09970213922092572 0
334 0.2494413548630482 0.1994413548634303 0
335 0.950000000000063 0.2999999999993288 0
336 0.9500000000000155 0.1999999999995836 0
337 0.8999999999999551 0.1499999999997174 0
338 0.2997652755378842 0.04976527553851033 0
339 0.09959586269405399 0.04959586269434903 0
340 0.1995184651962247 0.0495184651966597 0
341 0.2492837407346968 0.09928374073517003 0
$EndNodes
$Elements
140
1 8 2 1 1 1 5 14
2 8 2 1 1 5 6 15
3 8 2 1 1 6 7 16
4 8 2 1 1 7 8 17
5 8 2 1 1 8 9 18
6 8 2 1 1 9 10 19
7 8 2 1 1 10 11 20
8 8 2 1 1 11 12 21
9 8 2 1 1 12 13 22
10 8 2 1 1 13 2 23
11 8 2 1 2 2 24 33
12 8 2 1 2 24 25 34
13 8 2 1 2 25 26 35
14 8 2 1 2 26 27 36
15 8 2 1 2 27 28 37
16 8 2 1 2 28 29 38
17 8 2 1 2 29 30 39
18 8 2 1 2 30 31 40
19 8 2 1 2 31 32 41
20 8 2 1 2 32 3 42
21 8 2 2 3 3 43 52
22 8 2 2 3 43 44 53
23 8 2 2 3 44 45 54
24 8 2 2 3 45 46 55
25 8 2 2 3 46 47 56
26 8 2 2 3 47 48 57
27 8 2 2 3 48 49 58
28 8 2 2 3 49 50 59
29 8 2 2 3 50 51 60
30 8 2 2 3 51 4 61
31 8 2 1 4 4 62 71
32 8 2 1 4 62 63 72
33 8 2 1 4 63 64 73
34 8 2 1 4 64 65 74
35 8 2 1 4 65 66 75
36 8 2 1 4 66 67 76
37 8 2 1 4 67 68 77
38 8 2 1 4 68 69 78
39 8 2 1 4 69 70 79
40 8 2 1 4 70 1 80
41 16 2 1 1 157 158 159 156 162 163 164 165
42 16 2 1 1 145 156 146 149 166 167 168 169
43 16 2 1 1 158 157 151 148 162 170 171 172
44 16 2 1 1 159 158 161 147 163 173 174 175
45 16 2 1 1 156 159 160 146 164 176 177 167
46 16 2 1 1 103 95 107 91 178 179 180 181
47 16 2 1 1 144 108 109 128 182 183 184 185
48 16 2 1 1 147 153 160 159 186 187 176 175
49 16 2 1 1 148 151 136 119 171 188 189 190
50 16 2 1 1 105 81 48 49 191 192 58 193
51 16 2 1 1 150 148 119 137 194 190 195 196
52 16 2 1 1 127 120 83 110 197 198 199 200
53 16 2 1 1 156 145 155 157 166 201 202 165
54 16 2 1 1 48 81 111 47 192 203 204 57
55 16 2 1 1 137 119 85 113 195 205 206 207
56 16 2 1 1 134 121 111 81 208 209 203 210
57 16 2 1 1 119 136 112 85 189 211 212 205
58 16 2 1 1 92 31 32 98 213 41 214 215
59 16 2 1 1 93 97 86 117 216 217 218 219
60 16 2 1 1 106 104 87 92 220 221 222 223
61 16 2 1 1 66 67 113 85 76 224 206 225
62 16 2 1 1 92 98 94 106 215 226 227 223
63 16 2 1 1 124 116 84 143 228 229 230 231
64 16 2 1 1 110 83 9 10 199 232 19 233
65 16 2 1 1 89 12 13 102 234 22 235 236
66 16 2 1 1 109 108 99 89 183 237 238 239
67 16 2 1 1 93 105 49 50 240 193 59 241
68 16 2 1 1 88 113 67 68 242 224 77 243
69 16 2 1 1 28 29 114 82 38 244 245 246
70 16 2 1 1 113 88 123 137 242 247 248 207
71 16 2 1 1 135 125 115 82 249 250 251 252
72 16 2 1 1 135 152 141 125 253 254 255 249
73 16 2 1 1 91 107 123 88 180 256 247 257
74 16 2 1 1 124 106 94 116 258 227 259 228
75 16 2 1 1 97 93 50 51 216 241 60 260
76 16 2 1 1 62 97 51 4 261 260 61 71
77 16 2 1 1 97 62 63 86 261 72 262 217
78 16 2 1 1 152 135 126 138 253 263 264 265
79 16 2 1 1 161 154 131 147 266 267 268 174
80 16 2 1 1 143 149 139 124 269 270 271 231
81 16 2 1 1 110 99 108 127 272 237 273 200
82 16 2 1 1 128 125 141 144 274 255 275 185
83 16 2 1 1 87 114 29 30 276 244 39 277
84 16 2 1 1 114 87 104 126 276 221 278 279
85 16 2 1 1 145 149 143 121 169 269 280 281
86 16 2 1 1 99 110 10 11 272 233 20 282
87 16 2 1 1 13 2 24 102 23 33 283 235
88 16 2 1 1 153 147 131 140 186 268 284 285
89 16 2 1 1 43 98 32 3 286 214 42 52
90 16 2 1 1 131 154 142 120 267 287 288 289
91 16 2 1 1 120 142 118 83 288 290 291 198
92 16 2 1 1 149 146 138 139 168 292 293 270
93 16 2 1 1 98 43 44 94 286 53 294 226
94 16 2 1 1 89 99 11 12 238 282 21 234
95 16 2 1 1 92 87 30 31 222 277 40 213
96 16 2 1 1 133 150 137 123 295 196 248 296
97 16 2 1 1 91 88 68 69 257 243 78 297
98 16 2 1 1 120 127 140 131 197 298 284 289
99 16 2 1 1 139 138 126 104 293 264 278 299
100 16 2 1 1 148 150 161 158 194 300 173 172
101 16 2 1 1 144 140 127 108 301 298 273 182
102 16 2 1 1 103 91 69 70 181 297 79 302
103 16 2 1 1 122 117 129 132 303 304 305 306
104 16 2 1 1 125 128 101 115 274 307 308 250
105 16 2 1 1 82 115 27 28 251 309 37 246
106 16 2 1 1 81 105 122 134 191 310 311 210
107 16 2 1 1 106 124 139 104 258 271 299 220
108 16 2 1 1 160 153 141 152 187 312 254 313
109 16 2 1 1 154 161 150 133 266 300 295 314
110 16 2 1 1 152 138 146 160 265 292 177 313
111 16 2 1 1 45 116 94 44 315 259 294 54
112 16 2 1 1 8 9 83 118 18 232 291 316
113 16 2 1 1 84 111 121 143 317 209 280 230
114 16 2 1 1 82 114 126 135 245 279 263 252
115 16 2 1 1 85 112 65 66 212 318 75 225
116 16 2 1 1 101 128 109 96 307 184 319 320
117 16 2 1 1 151 157 155 132 170 202 321 322
118 16 2 1 1 140 144 141 153 301 275 312 285
119 16 2 1 1 111 84 46 47 317 323 56 204
120 16 2 1 1 100 112 136 129 324 211 325 326
121 16 2 1 1 136 151 132 129 188 322 305 325
122 16 2 1 1 64 100 86 63 327 328 262 73
123 16 2 1 1 64 65 112 100 74 318 324 327
124 16 2 1 1 130 142 154 133 329 287 314 330
125 16 2 1 1 134 122 132 155 311 306 321 331
126 16 2 1 1 116 45 46 84 315 55 323 229
127 16 2 1 1 105 93 117 122 240 219 303 310
128 16 2 1 1 142 130 90 118 329 332 333 290
129 16 2 1 1 121 134 155 145 208 331 201 281
130 16 2 1 1 123 107 130 133 256 334 330 296
131 16 2 1 1 115 101 26 27 308 335 36 309
132 16 2 1 1 102 24 25 96 283 34 336 337
133 16 2 1 1 118 90 7 8 333 338 17 316
134 16 2 1 1 103 5 6 95 339 15 340 178
135 16 2 1 1 129 117 86 100 304 218 328 326
136 16 2 1 1 107 95 90 130 179 341 332 334
137 16 2 1 1 70 1 5 103 80 14 339 302
138 16 2 1 1 89 102 96 109 236 337 319 239
139 16 2 1 1 7 90 95 6 338 341 340 16
140 16 2 1 1 26 101 96 25 335 320 336 35
$EndElements
