# vtk DataFile Version 3.0 
Unstructured Grid 
ASCII 
DATASET UNSTRUCTURED_GRID
POINTS 861 float 
0 0 0  
2 0 0  
2 1 0  
0 1 0  
0.05 0 0  
0.1 0 0  
0.15 0 0  
0.2 0 0  
0.25 0 0  
0.3 0 0  
0.35 0 0  
0.4 0 0  
0.45 0 0  
0.5 0 0  
0.55 0 0  
0.6 0 0  
0.65 0 0  
0.7 0 0  
0.75 0 0  
0.8 0 0  
0.85 0 0  
0.9 0 0  
0.95 0 0  
1.0 0 0  
1.05 0 0  
1.1 0 0  
1.15 0 0  
1.2 0 0  
1.25 0 0  
1.3 0 0  
1.35 0 0  
1.4 0 0  
1.45 0 0  
1.5 0 0  
1.55 0 0  
1.6 0 0  
1.65 0 0  
1.7 0 0  
1.75 0 0  
1.8 0 0  
1.85 0 0  
1.9 0 0  
1.95 0 0  
2 0.05 0  
2 0.1 0  
2 0.15 0  
2 0.2 0  
2 0.25 0  
2 0.3 0  
2 0.35 0  
2 0.4 0  
2 0.45 0  
2 0.5 0  
2 0.55 0  
2 0.6 0  
2 0.65 0  
2 0.7 0  
2 0.75 0  
2 0.8 0  
2 0.85 0  
2 0.9 0  
2 0.95 0  
1.95 1 0  
1.9 1 0  
1.85 1 0  
1.8 1 0  
1.75 1 0  
1.7 1 0  
1.65 1 0  
1.6 1 0  
1.55 1 0  
1.5 1 0  
1.45 1 0  
1.4 1 0  
1.35 1 0  
1.3 1 0  
1.25 1 0  
1.2 1 0  
1.15 1 0  
1.1 1 0  
1.05 1 0  
1.0 1 0  
0.95 1 0  
0.9 1 0  
0.85 1 0  
0.8 1 0  
0.75 1 0  
0.7 1 0  
0.65 1 0  
0.6 1 0  
0.55 1 0  
0.5 1 0  
0.45 1 0  
0.4 1 0  
0.35 1 0  
0.3 1 0  
0.25 1 0  
0.2 1 0  
0.15 1 0  
0.1 1 0  
0.05 1 0  
0 0.95 0  
0 0.9 0  
0 0.85 0  
0 0.8 0  
0 0.75 0  
0 0.7 0  
0 0.65 0  
0 0.6 0  
0 0.55 0  
0 0.5 0  
0 0.45 0  
0 0.4 0  
0 0.35 0  
0 0.3 0  
0 0.25 0  
0 0.2 0  
0 0.15 0  
0 0.1 0  
0 0.05 0  
1.4 0.95 0  
1.05 0.95 0  
0.65 0.05 0  
0.9 0.05 0  
1.25 0.05 0  
1.5 0.05 0  
0.8 0.95 0  
0.55 0.95 0  
0.05 0.5 0  
1.95 0.5 0  
1.6 0.95 0  
0.45 0.05 0  
1.7 0.05 0  
0.3 0.95 0  
0.049999874 0.34999987 0  
1.95 0.65 0  
0.2999993 0.049999285 0  
1.75 0.95 0  
0.05 0.8 0  
1.95 0.3 0  
1.85 0.05 0  
0.049941167 0.19994117 0  
1.95 0.8 0  
0.14976409 0.049764093 0  
1.2 0.95 0  
1.85 0.95 0  
0.15 0.95 0  
1.95 0.15 0  
0.9 0.95 0  
0.4 0.95 0  
1.4 0.05 0  
1.15 0.05 0  
0.05 0.7 0  
1.95 0.05 0  
0.04949544 0.09949544 0  
0.05 0.95 0  
1.9 0.95 0  
0.09951722 0.04951722 0  
0.05 0.6 0  
0.95 0.95 0  
1.95 0.9 0  
1.95 0.4 0  
0.04999828 0.29999828 0  
1.1 0.05 0  
1.05 0.05 0  
0.2 0.95 0  
0.05 0.45 0  
1.95 0.7 0  
1.95 0.55 0  
0.05 0.9 0  
1.8 0.05 0  
0.45 0.95 0  
1.65 0.05 0  
1.6 0.05 0  
1.35 0.05 0  
1.0 0.05 0  
0.7 0.95 0  
0.6 0.95 0  
0.85 0.05 0  
0.4 0.049999997 0  
0.55 0.05 0  
0.24998915 0.04998915 0  
0.8 0.05 0  
0.75 0.05 0  
1.5 0.95 0  
1.65 0.95 0  
1.1 0.95 0  
1.25 0.95 0  
1.3 0.95 0  
1.95 0.2 0  
1.95 0.95 0  
0.049595524 0.049595524 0  
1.05 0.9 0  
1.25 0.9 0  
0.85 0.1 0  
0.55 0.9 0  
1.05 0.1 0  
1.4 0.1 0  
0.1 0.5 0  
0.45 0.1 0  
1.9 0.5 0  
1.6 0.9 0  
1.6 0.1 0  
0.09999947 0.3499995 0  
1.9 0.65 0  
0.2999975 0.0999975 0  
0.15 0.9 0  
1.85 0.1 0  
0.95 0.9 0  
0.45 0.9 0  
0.1 0.9 0  
1.9 0.15 0  
0.049999952 0.39999995 0  
1.85 0.9 0  
1.9 0.9 0  
0.05 0.55 0  
1.95 0.6 0  
1.7 0.95 0  
0.1 0.95 0  
0.85 0.95 0  
1.8 0.95 0  
1.1 0.1 0  
1.0 0.95 0  
1.95 0.75 0  
0.049985267 0.24998526 0  
1.95 0.45 0  
0.25 0.95 0  
0.049814284 0.14981428 0  
1.2 0.05 0  
1.9 0.05 0  
0.35 0.95 0  
1.95 0.85 0  
1.7 0.1 0  
1.75 0.05 0  
1.55 0.05 0  
1.45 0.05 0  
0.5 0.95 0  
1.3 0.05 0  
0.75 0.95 0  
0.65 0.95 0  
0.5 0.05 0  
0.8 0.1 0  
0.6 0.05 0  
0.34999976 0.049999747 0  
0.7 0.05 0  
0.95 0.05 0  
1.55 0.95 0  
1.45 0.95 0  
1.15 0.95 0  
1.35 0.95 0  
1.95 0.35 0  
0.19993632 0.04993632 0  
1.95 0.25 0  
0.05 0.65 0  
0.05 0.75 0  
0.05 0.85 0  
1.95 0.1 0  
0.099640466 0.099640466 0  
1.05 0.15 0  
0.85 0.15 0  
0.1 0.7 0  
1.9 0.3 0  
0.65 0.1 0  
0.09997866 0.24997866 0  
1.4 0.9 0  
0.099803895 0.14980389 0  
0.099999994 0.45 0  
1.9 0.6 0  
1.9 0.75 0  
1.85 0.85 0  
1.7 0.9 0  
1.8 0.9 0  
0.25 0.9 0  
0.85 0.9 0  
1.75 0.1 0  
0.75 0.9 0  
1.2 0.1 0  
0.75 0.1 0  
0.39999998 0.09999998 0  
1.3 0.9 0  
1.9 0.2 0  
0.15 0.85 0  
0.0999999 0.3999999 0  
1.0 0.9 0  
1.9 0.55 0  
0.1 0.8 0  
1.0 0.1 0  
0.1 0.6 0  
0.1 0.55 0  
0.9 0.9 0  
0.09999452 0.29999453 0  
1.9 0.7 0  
0.2 0.9 0  
1.9 0.4 0  
1.9 0.45 0  
1.8 0.1 0  
1.15 0.1 0  
0.5 0.9 0  
0.35 0.9 0  
0.4 0.9 0  
1.65 0.9 0  
0.65 0.9 0  
0.14979935 0.09979935 0  
1.55 0.1 0  
0.6 0.9 0  
1.45 0.1 0  
1.9 0.85 0  
1.3 0.1 0  
1.35 0.1 0  
1.65 0.1 0  
0.1 0.85 0  
0.55 0.1 0  
0.5 0.1 0  
0.24997999 0.09997998 0  
1.1 0.9 0  
1.5 0.9 0  
0.34999955 0.09999955 0  
0.9 0.1 0  
1.2 0.9 0  
1.55 0.9 0  
1.9 0.1 0  
1.25 0.85 0  
0.5 0.15 0  
1.05 0.85 0  
1.35 0.15 0  
0.65 0.85 0  
0.15 0.55 0  
1.85 0.45 0  
1.5 0.85 0  
1.85 0.6 0  
0.14999987 0.3999999 0  
1.65 0.15 0  
0.35 0.85 0  
1.65 0.85 0  
0.3499996 0.14999959 0  
1.85 0.75 0  
0.14999506 0.29999506 0  
0.9 0.85 0  
1.8 0.85 0  
1.0 0.15 0  
1.75 0.15 0  
0.9 0.15 0  
1.15 0.15 0  
0.15 0.8 0  
0.14987768 0.14987768 0  
0.2 0.85 0  
0.099922106 0.1999221 0  
1.0 0.85 0  
1.75 0.9 0  
1.85 0.8 0  
1.45 0.15 0  
1.1 0.15 0  
1.55 0.15 0  
0.8 0.9 0  
0.7 0.9 0  
0.3 0.9 0  
1.25 0.1 0  
1.85 0.7 0  
1.9 0.8 0  
0.4 0.85 0  
0.5 0.85 0  
1.8 0.15 0  
1.85 0.15 0  
1.5 0.1 0  
0.6 0.85 0  
0.6 0.1 0  
0.8 0.15 0  
1.85 0.5 0  
0.95 0.1 0  
1.6 0.85 0  
1.15 0.9 0  
0.29999638 0.14999637 0  
0.19991855 0.09991855 0  
1.45 0.9 0  
0.15 0.5 0  
0.7 0.1 0  
0.39999992 0.14999992 0  
1.9 0.35 0  
0.1 0.65 0  
1.35 0.9 0  
1.9 0.25 0  
0.1 0.75 0  
1.05 0.8 0  
0.85 0.2 0  
0.65 0.8 0  
1.05 0.2 0  
0.2 0.55 0  
1.8 0.45 0  
0.35 0.8 0  
1.6 0.8 0  
0.39999995 0.19999994 0  
1.8 0.7 0  
0.2 0.8 0  
0.14994135 0.19994135 0  
1.8 0.8 0  
1.8 0.2 0  
1.75 0.85 0  
0.8 0.85 0  
0.6 0.15 0  
1.4 0.85 0  
0.24998082 0.14998083 0  
0.15 0.7 0  
1.85 0.3 0  
0.1499781 0.24997811 0  
1.85 0.2 0  
0.14999998 0.45 0  
1.7 0.85 0  
1.85 0.55 0  
0.95 0.15 0  
0.14999871 0.3499987 0  
0.95 0.85 0  
0.85 0.85 0  
1.5 0.15 0  
1.7 0.15 0  
1.1 0.2 0  
0.45 0.85 0  
1.4 0.15 0  
0.7 0.85 0  
0.15 0.6 0  
0.25 0.85 0  
0.3 0.85 0  
1.6 0.15 0  
1.2 0.15 0  
1.3 0.15 0  
0.55 0.85 0  
1.85 0.65 0  
0.75 0.15 0  
0.55 0.15 0  
0.45 0.14999999 0  
1.85 0.4 0  
1.3 0.85 0  
0.7 0.15 0  
0.3499995 0.19999948 0  
1.55 0.85 0  
1.1 0.85 0  
1.2 0.85 0  
1.45 0.85 0  
0.19993898 0.14993897 0  
0.15 0.75 0  
1.3 0.2 0  
1.25 0.8 0  
0.9 0.8 0  
1.05 0.25 0  
0.39999995 0.24999994 0  
1.5 0.2 0  
1.7 0.2 0  
0.19999981 0.3999998 0  
1.1 0.8 0  
0.55 0.2 0  
1.4 0.8 0  
0.19999619 0.2999962 0  
0.25 0.8 0  
0.7 0.8 0  
0.45 0.8 0  
1.8 0.4 0  
0.2 0.6 0  
0.75 0.2 0  
0.3 0.8 0  
0.19998682 0.24998681 0  
0.29999673 0.19999674 0  
1.8 0.75 0  
1.7 0.8 0  
1.65 0.8 0  
0.9 0.2 0  
1.4 0.2 0  
0.85 0.8 0  
0.4 0.8 0  
1.75 0.2 0  
0.24998684 0.19998685 0  
1.8 0.6 0  
1.8 0.65 0  
1.15 0.2 0  
1.65 0.2 0  
0.55 0.8 0  
0.6 0.8 0  
1.25 0.15 0  
1.75 0.8 0  
0.75 0.85 0  
1.6 0.2 0  
0.95 0.2 0  
1.0 0.2 0  
1.0 0.8 0  
0.65 0.15 0  
1.8 0.5 0  
1.15 0.85 0  
1.85 0.35 0  
1.35 0.85 0  
1.5 0.8 0  
0.19996496 0.19996496 0  
0.8 0.2 0  
0.5 0.2 0  
0.45 0.19999999 0  
0.2 0.5 0  
0.15 0.65 0  
1.55 0.8 0  
1.85 0.25 0  
0.2 0.75 0  
0.85 0.25 0  
0.55 0.75 0  
1.1 0.75 0  
0.9 0.75 0  
0.25 0.55 0  
1.5 0.75 0  
1.75 0.45 0  
1.75 0.6 0  
1.7 0.25 0  
0.3 0.75 0  
1.6 0.75 0  
0.75 0.8 0  
0.4 0.75 0  
1.25 0.2 0  
0.5 0.25 0  
1.3 0.8 0  
0.2 0.65 0  
0.25 0.75 0  
1.75 0.75 0  
0.24999776 0.29999778 0  
0.34999952 0.24999952 0  
0.19999996 0.44999996 0  
1.75 0.25 0  
1.8 0.35 0  
1.8 0.3 0  
1.65 0.75 0  
1.8 0.55 0  
0.29999775 0.24999774 0  
0.8 0.8 0  
0.9 0.25 0  
1.0 0.25 0  
0.95 0.8 0  
1.45 0.2 0  
1.35 0.2 0  
1.2 0.2 0  
1.1 0.25 0  
0.19999874 0.34999874 0  
1.65 0.25 0  
1.55 0.2 0  
0.5 0.8 0  
1.75 0.65 0  
0.65 0.75 0  
0.24999246 0.24999246 0  
0.7 0.2 0  
0.6 0.2 0  
1.05 0.75 0  
1.45 0.8 0  
1.15 0.8 0  
1.2 0.8 0  
0.75 0.25 0  
0.45 0.24999999 0  
1.35 0.8 0  
1.8 0.25 0  
0.2 0.7 0  
1.25 0.75 0  
1.25 0.25 0  
1.45 0.25 0  
1.1 0.7 0  
0.85 0.3 0  
1.0 0.3 0  
0.39999992 0.29999992 0  
0.24999997 0.44999996 0  
1.7 0.3 0  
1.7 0.6 0  
1.6 0.7 0  
0.24999917 0.34999916 0  
0.95 0.75 0  
0.8 0.75 0  
0.5 0.75 0  
0.7 0.75 0  
0.7 0.25 0  
1.4 0.75 0  
0.2999987 0.2999987 0  
1.75 0.4 0  
0.25 0.7 0  
0.25 0.6 0  
1.75 0.35 0  
0.24999999 0.5 0  
1.0 0.75 0  
0.85 0.75 0  
1.5 0.25 0  
1.6 0.25 0  
0.35 0.75 0  
0.95 0.25 0  
0.45 0.75 0  
1.3 0.25 0  
1.05 0.3 0  
1.2 0.75 0  
1.7 0.75 0  
1.35 0.25 0  
0.6 0.75 0  
1.75 0.7 0  
1.75 0.55 0  
1.75 0.5 0  
1.15 0.25 0  
0.65 0.2 0  
0.8 0.25 0  
0.55 0.25 0  
1.15 0.75 0  
1.55 0.75 0  
0.5 0.3 0  
1.45 0.75 0  
1.3 0.75 0  
1.75 0.3 0  
1.25 0.7 0  
1.4 0.7 0  
0.7 0.7 0  
1.25 0.3 0  
0.95 0.7 0  
1.45 0.3 0  
0.45 0.7 0  
1.0 0.35 0  
0.3 0.55 0  
0.55 0.3 0  
0.85 0.7 0  
0.75 0.3 0  
0.95 0.3 0  
1.65 0.7 0  
0.55 0.7 0  
0.65 0.25 0  
1.15 0.7 0  
0.2999995 0.34999952 0  
1.7 0.65 0  
0.24999973 0.39999974 0  
0.29999998 0.5 0  
1.7 0.55 0  
1.7 0.45 0  
1.5 0.7 0  
1.55 0.7 0  
0.3 0.7 0  
0.8 0.3 0  
0.9 0.3 0  
1.2 0.25 0  
0.75 0.75 0  
1.7 0.7 0  
1.3 0.3 0  
1.55 0.25 0  
0.6 0.7 0  
0.35 0.7 0  
1.4 0.25 0  
1.65 0.3 0  
1.1 0.3 0  
0.45 0.29999998 0  
1.35 0.75 0  
1.05 0.7 0  
0.6 0.25 0  
0.34999955 0.29999954 0  
1.7 0.35 0  
0.25 0.65 0  
1.25 0.35 0  
0.85 0.35 0  
0.5 0.35 0  
1.1 0.65 0  
0.55 0.65 0  
0.35 0.55 0  
1.5 0.65 0  
1.65 0.55 0  
0.29999983 0.39999983 0  
1.4 0.3 0  
0.95 0.35 0  
0.75 0.7 0  
1.3 0.7 0  
0.3 0.65 0  
1.65 0.35 0  
0.29999995 0.44999996 0  
1.7 0.5 0  
1.0 0.7 0  
1.35 0.3 0  
0.9 0.7 0  
0.75 0.35 0  
0.4 0.7 0  
1.2 0.3 0  
1.15 0.3 0  
0.8 0.7 0  
0.5 0.7 0  
1.55 0.3 0  
1.6 0.3 0  
0.65 0.7 0  
1.6 0.65 0  
1.65 0.6 0  
1.5 0.3 0  
1.65 0.65 0  
1.05 0.35 0  
0.7 0.3 0  
0.39999995 0.34999993 0  
1.45 0.7 0  
1.35 0.7 0  
0.6 0.3 0  
1.2 0.7 0  
0.34999976 0.34999976 0  
1.7 0.4 0  
0.3 0.6 0  
1.25 0.65 0  
0.95 0.4 0  
1.4 0.35 0  
0.8 0.65 0  
1.0 0.65 0  
1.5 0.35 0  
1.6 0.35 0  
0.7 0.65 0  
0.6 0.65 0  
0.7 0.35 0  
1.15 0.65 0  
0.4 0.65 0  
0.5 0.65 0  
0.35 0.6 0  
1.6 0.55 0  
1.6 0.6 0  
0.34999996 0.45 0  
0.35 0.5 0  
1.65 0.45 0  
1.65 0.5 0  
1.2 0.35 0  
1.05 0.65 0  
0.95 0.65 0  
0.9 0.35 0  
1.4 0.65 0  
1.45 0.65 0  
0.39999998 0.39999998 0  
0.3499999 0.3999999 0  
1.35 0.35 0  
1.3 0.35 0  
1.0 0.4 0  
0.9 0.65 0  
1.1 0.35 0  
0.8 0.35 0  
0.55 0.35 0  
0.45 0.35 0  
1.55 0.65 0  
1.3 0.65 0  
0.65 0.3 0  
0.35 0.65 0  
1.65 0.4 0  
1.1 0.6 0  
1.2 0.4 0  
1.4 0.6 0  
0.85 0.4 0  
0.75 0.4 0  
0.5 0.4 0  
1.0 0.6 0  
1.25 0.6 0  
1.3 0.4 0  
0.5 0.6 0  
0.95 0.45 0  
0.4 0.55 0  
0.39999998 0.45 0  
0.65 0.35 0  
1.55 0.6 0  
1.55 0.35 0  
1.6 0.5 0  
1.15 0.35 0  
1.35 0.4 0  
0.9 0.4 0  
0.45 0.65 0  
0.85 0.65 0  
0.75 0.65 0  
1.45 0.35 0  
0.65 0.65 0  
0.6 0.6 0  
0.95 0.6 0  
1.5 0.6 0  
1.05 0.4 0  
0.6 0.35 0  
1.35 0.65 0  
1.2 0.65 0  
0.45 0.39999998 0  
0.4 0.6 0  
1.6 0.4 0  
1.45 0.4 0  
0.85 0.6 0  
0.75 0.6 0  
0.6 0.4 0  
1.3 0.45 0  
1.0 0.55 0  
1.55 0.4 0  
1.15 0.4 0  
1.35 0.6 0  
0.65 0.6 0  
1.15 0.6 0  
0.45 0.55 0  
1.5 0.55 0  
0.4 0.5 0  
1.05 0.6 0  
1.1 0.4 0  
0.85 0.45 0  
1.3 0.6 0  
0.5 0.45 0  
0.45 0.45 0  
0.9 0.6 0  
1.4 0.4 0  
1.25 0.4 0  
0.55 0.6 0  
0.9 0.45 0  
1.0 0.45 0  
1.55 0.5 0  
0.7 0.4 0  
0.8 0.4 0  
1.45 0.6 0  
1.55 0.55 0  
0.55 0.4 0  
0.45 0.6 0  
1.6 0.45 0  
1.2 0.6 0  
1.1 0.55 0  
0.75 0.45 0  
0.65 0.55 0  
1.1 0.45 0  
1.2 0.55 0  
1.2 0.45 0  
1.4 0.55 0  
1.4 0.45 0  
1.5 0.5 0  
0.9 0.5 0  
0.5 0.55 0  
0.95 0.55 0  
0.95 0.5 0  
1.5 0.4 0  
0.9 0.55 0  
1.05 0.55 0  
0.45 0.5 0  
1.05 0.45 0  
1.25 0.45 0  
0.8 0.45 0  
1.3 0.55 0  
1.35 0.45 0  
0.7 0.6 0  
0.8 0.6 0  
0.6 0.55 0  
0.65 0.4 0  
1.45 0.55 0  
1.55 0.45 0  
0.55 0.45 0  
0.8 0.55 0  
0.75 0.55 0  
0.7 0.45 0  
0.6 0.45 0  
0.55 0.55 0  
1.1 0.5 0  
1.05 0.5 0  
1.0 0.5 0  
1.2 0.5 0  
1.25 0.5 0  
1.3 0.5 0  
1.35 0.5 0  
1.4 0.5 0  
1.45 0.45 0  
1.5 0.45 0  
0.85 0.5 0  
0.75 0.5 0  
0.5 0.5 0  
0.65 0.5 0  
1.25 0.55 0  
0.85 0.55 0  
1.15 0.45 0  
0.7 0.55 0  
1.35 0.55 0  
1.45 0.5 0  
1.15 0.55 0  
0.55 0.5 0  
0.6 0.5 0  
0.8 0.5 0  
0.65 0.45 0  
1.15 0.5 0  
0.7 0.5 0  
CELLS 800 4000 
4 834 835 817 803 
4 803 850 859 834 
4 835 836 790 817 
4 850 805 837 859 
4 837 838 848 804 
4 838 839 820 848 
4 506 457 451 514 
4 839 840 852 820 
4 807 842 853 841 
4 843 842 765 813 
4 811 814 809 812 
4 814 849 844 809 
4 654 661 558 620 
4 849 829 857 844 
4 730 779 815 800 
4 620 558 518 446 
4 393 403 263 346 
4 829 830 845 857 
4 404 495 549 395 
4 741 778 816 776 
4 395 361 362 404 
4 622 662 590 589 
4 830 851 860 845 
4 446 518 405 330 
4 266 282 330 405 
4 575 563 605 663 
4 833 810 846 855 
4 816 784 783 846 
4 691 717 664 655 
4 709 747 669 668 
4 663 605 711 693 
4 600 559 505 519 
4 851 802 847 860 
4 469 523 407 329 
4 858 831 860 847 
4 329 407 284 267 
4 210 206 146 218 
4 191 157 257 154 
4 847 856 832 858 
4 515 460 394 476 
4 645 659 626 571 
4 647 712 749 733 
4 396 348 270 406 
4 383 463 526 497 
4 514 571 626 506 
4 577 553 529 444 
4 451 457 420 419 
4 207 140 229 320 
4 441 528 410 337 
4 349 335 268 358 
4 816 778 742 784 
4 281 345 292 206 
4 505 445 467 519 
4 450 458 539 516 
4 110 111 166 128 
4 613 628 526 580 
4 453 415 359 466 
4 134 212 112 113 
4 287 288 326 418 
4 571 514 496 550 
4 397 411 273 353 
4 667 700 750 607 
4 552 629 531 510 
4 438 401 550 496 
4 66 137 220 65 
4 843 813 771 827 
4 325 417 354 301 
4 3 101 155 100 
4 294 327 429 293 
4 163 164 24 25 
4 169 210 218 155 
4 841 840 821 807 
4 348 137 217 270 
4 52 53 168 129 
4 524 539 468 459 
4 214 156 145 213 
4 346 263 224 141 
4 135 216 54 55 
4 412 363 303 352 
4 282 266 166 212 
4 43 44 256 153 
4 798 764 729 707 
4 164 163 221 196 
4 219 126 353 273 
4 169 155 101 102 
4 385 414 532 442 
4 521 549 495 402 
4 206 210 310 281 
4 468 488 437 400 
4 559 600 573 644 
4 776 797 763 741 
4 220 271 213 145 
4 829 849 766 823 
4 351 342 471 414 
4 413 445 472 331 
4 306 358 142 231 
4 272 226 165 292 
4 744 704 675 725 
4 292 345 419 272 
4 403 393 488 458 
4 510 531 422 475 
4 145 64 65 220 
4 420 355 272 419 
4 263 290 162 224 
4 657 670 564 630 
4 715 716 686 681 
4 751 692 823 766 
4 661 654 716 705 
4 780 772 850 803 
4 459 468 400 371 
4 643 569 524 517 
4 268 291 167 223 
4 715 742 705 716 
4 1 43 153 42 
4 557 643 517 443 
4 460 391 357 335 
4 765 786 691 753 
4 296 276 422 342 
4 212 134 203 282 
4 267 284 168 216 
4 358 306 269 349 
4 330 409 533 446 
4 581 607 671 565 
4 419 345 392 451 
4 166 111 112 212 
4 741 763 702 651 
4 159 82 83 148 
4 687 644 573 570 
4 392 496 514 451 
4 273 289 148 219 
4 24 164 175 23 
4 525 508 630 564 
4 344 265 257 302 
4 818 805 731 787 
4 837 804 854 859 
4 81 82 159 222 
4 276 356 475 422 
4 670 657 752 692 
4 141 224 115 116 
4 700 728 702 763 
4 493 418 455 513 
4 196 286 175 164 
4 421 202 309 331 
4 142 223 57 58 
4 739 797 776 810 
4 517 524 459 432 
4 623 687 570 503 
4 275 353 126 238 
4 133 95 96 226 
4 124 228 27 28 
4 268 335 357 291 
4 470 469 329 425 
4 226 272 355 133 
4 336 409 203 290 
4 508 525 397 477 
4 598 568 602 682 
4 276 296 151 228 
4 760 773 732 713 
4 565 536 453 581 
4 400 437 372 313 
4 515 476 461 585 
4 682 714 652 624 
4 619 631 614 678 
4 121 222 283 192 
4 213 269 306 214 
4 552 582 632 604 
4 754 696 603 674 
4 854 800 834 859 
4 216 135 204 267 
4 274 233 170 295 
4 797 739 701 750 
4 570 573 520 454 
4 202 303 234 173 
4 297 236 171 209 
4 406 461 476 396 
4 146 206 292 165 
4 323 347 481 382 
4 197 150 235 305 
4 445 505 534 472 
4 168 53 54 216 
4 651 702 688 609 
4 346 265 344 393 
4 141 227 265 346 
4 209 415 360 297 
4 228 124 356 276 
4 208 283 222 159 
4 473 474 364 424 
4 137 348 271 220 
4 156 214 160 190 
4 156 190 62 63 
4 298 299 149 230 
4 343 438 496 392 
4 458 450 336 403 
4 750 700 763 797 
4 176 239 301 354 
4 134 162 290 203 
4 810 833 788 739 
4 775 730 800 854 
4 633 577 444 535 
4 254 152 260 381 
4 44 45 147 256 
4 298 332 359 299 
4 418 326 386 455 
4 409 330 282 203 
4 354 275 238 176 
4 170 140 207 295 
4 274 295 361 340 
4 437 344 302 372 
4 437 488 393 344 
4 498 615 634 587 
4 324 308 197 416 
4 135 167 291 204 
4 306 231 160 214 
4 585 631 588 515 
4 444 529 350 412 
4 355 420 332 298 
4 364 304 195 424 
4 230 133 355 298 
4 162 134 113 114 
4 415 209 299 359 
4 301 304 364 325 
4 148 83 84 219 
4 409 336 450 533 
4 218 146 98 99 
4 745 694 677 672 
4 748 738 718 717 
4 683 658 726 760 
4 155 218 99 100 
4 781 819 793 733 
4 290 263 403 336 
4 439 530 586 582 
4 237 307 356 124 
4 424 195 297 360 
4 425 329 267 204 
4 223 142 358 268 
4 215 128 198 288 
4 420 457 388 332 
4 342 351 221 296 
4 345 281 343 392 
4 528 441 500 563 
4 485 429 454 520 
4 307 237 174 308 
4 640 599 658 683 
4 465 441 337 411 
4 726 689 737 782 
4 473 498 587 474 
4 291 357 425 204 
4 607 581 509 667 
4 309 202 173 172 
4 506 626 635 579 
4 331 472 478 421 
4 362 361 295 207 
4 340 413 232 274 
4 133 230 94 95 
4 337 410 208 289 
4 163 25 26 151 
4 445 413 340 467 
4 484 434 447 544 
4 146 165 97 98 
4 301 239 177 304 
4 579 388 457 506 
4 655 664 586 636 
4 412 352 535 444 
4 353 275 477 397 
4 135 55 56 167 
4 233 274 232 132 
4 172 132 232 309 
4 460 515 588 391 
4 167 56 57 223 
4 509 466 388 579 
4 234 303 363 125 
4 807 821 748 786 
4 605 665 720 711 
4 571 550 513 645 
4 436 399 449 543 
4 281 310 285 343 
4 415 453 536 360 
4 177 127 195 304 
4 162 114 115 224 
4 538 566 452 384 
4 439 510 475 423 
4 762 784 742 715 
4 672 633 578 673 
4 425 357 391 470 
4 145 156 63 64 
4 452 508 477 417 
4 132 37 38 233 
4 573 600 521 520 
4 471 531 629 591 
4 674 603 566 538 
4 171 149 299 209 
4 700 667 635 728 
4 596 625 561 507 
4 62 190 61 2 
4 160 60 61 190 
4 564 576 465 525 
4 538 587 634 674 
4 566 630 508 452 
4 286 196 258 339 
4 828 855 846 783 
4 191 154 118 119 
4 633 672 677 577 
4 658 601 689 726 
4 319 315 328 433 
4 530 439 423 324 
4 165 226 96 97 
4 324 416 464 530 
4 154 227 117 118 
4 668 669 591 629 
4 615 498 565 671 
4 127 90 91 236 
4 603 657 630 566 
4 842 843 808 853 
4 831 801 845 860 
4 505 559 637 534 
4 519 549 521 600 
4 805 818 838 837 
4 629 552 604 668 
4 413 331 309 232 
4 548 512 599 640 
4 363 412 350 305 
4 305 350 416 197 
4 210 169 255 310 
4 429 327 387 454 
4 442 532 638 583 
4 767 822 851 830 
4 356 307 423 475 
4 469 470 537 504 
4 636 464 529 553 
4 599 551 601 658 
4 227 141 116 117 
4 222 121 80 81 
4 538 384 474 587 
4 350 529 464 416 
4 225 129 200 294 
4 631 619 537 588 
4 354 417 477 275 
4 151 26 27 228 
4 332 388 466 359 
4 303 202 421 352 
4 124 28 29 237 
4 150 197 308 174 
4 692 751 611 670 
4 582 552 510 439 
4 378 493 401 260 
4 379 486 399 264 
4 733 749 789 781 
4 747 709 731 772 
4 813 765 753 694 
4 536 565 498 473 
4 486 430 512 548 
4 352 421 478 535 
4 417 325 384 452 
4 696 752 657 603 
4 753 691 655 606 
4 738 787 646 718 
4 769 818 787 738 
4 308 324 423 307 
4 693 711 756 736 
4 839 838 818 769 
4 592 616 642 541 
4 840 839 769 821 
4 466 509 581 453 
4 636 553 606 655 
4 676 678 675 704 
4 316 205 136 243 
4 855 856 824 833 
4 153 229 41 42 
4 606 677 694 753 
4 516 562 533 450 
4 424 360 536 473 
4 530 464 636 586 
4 556 583 679 608 
4 710 693 736 779 
4 611 665 500 576 
4 646 709 668 604 
4 718 632 664 717 
4 163 151 296 221 
4 822 767 752 696 
4 236 297 195 127 
4 235 125 363 305 
4 414 385 258 351 
4 788 650 701 739 
4 754 697 755 774 
4 142 58 59 231 
4 692 752 767 823 
4 787 731 709 646 
4 176 87 88 239 
4 341 408 479 463 
4 227 154 257 265 
4 805 850 772 731 
4 269 213 271 338 
4 470 391 588 537 
4 149 93 94 230 
4 160 231 59 60 
4 553 577 677 606 
4 704 703 653 676 
4 660 644 687 729 
4 253 378 260 152 
4 595 617 685 584 
4 325 364 474 384 
4 534 637 673 578 
4 229 140 40 41 
4 727 680 698 743 
4 786 765 842 807 
4 717 691 786 748 
4 170 39 40 140 
4 472 534 578 478 
4 788 833 824 755 
4 582 586 664 632 
4 846 810 776 816 
4 738 748 821 769 
4 615 650 697 634 
4 604 632 718 646 
4 830 829 823 767 
4 549 519 467 395 
4 579 635 667 509 
4 516 539 524 569 
4 593 497 555 627 
4 361 395 467 340 
4 638 669 747 721 
4 772 780 721 747 
4 674 634 697 754 
4 446 533 562 620 
4 671 701 650 615 
4 512 440 551 599 
4 504 537 619 560 
4 824 802 774 755 
4 335 349 394 460 
4 347 323 192 283 
4 170 233 38 39 
4 589 590 483 523 
4 289 273 411 337 
4 680 612 666 698 
4 149 171 92 93 
4 637 559 644 660 
4 442 527 480 385 
4 803 817 758 780 
4 448 594 511 490 
4 583 556 527 442 
4 802 851 822 774 
4 697 650 788 755 
4 766 785 720 751 
4 781 844 857 819 
4 836 812 740 790 
4 547 511 597 639 
4 428 322 490 491 
4 342 422 531 471 
4 172 36 37 132 
4 690 719 790 740 
4 705 706 621 661 
4 608 679 758 719 
4 607 750 701 671 
4 172 173 35 36 
4 137 66 67 217 
4 150 31 32 235 
4 678 676 560 619 
4 696 754 774 822 
4 234 125 33 34 
4 616 567 680 727 
4 173 234 34 35 
4 171 236 91 92 
4 414 471 591 532 
4 174 237 29 30 
4 150 174 30 31 
4 235 32 33 125 
4 544 545 435 484 
4 626 659 728 635 
4 694 745 771 813 
4 802 824 856 847 
4 247 120 264 373 
4 246 184 315 319 
4 771 764 798 827 
4 196 221 351 258 
4 338 271 348 396 
4 349 269 338 394 
4 745 695 764 771 
4 238 126 85 86 
4 411 397 525 465 
4 219 84 85 126 
4 562 516 569 618 
4 176 238 86 87 
4 127 177 89 90 
4 532 591 669 638 
4 672 673 695 745 
4 177 239 88 89 
4 695 660 729 764 
4 665 605 563 500 
4 199 131 240 312 
4 617 699 761 685 
4 689 761 799 737 
4 576 564 670 611 
4 285 381 438 343 
4 479 480 527 580 
4 673 637 660 695 
4 535 478 578 633 
4 128 215 109 110 
4 556 613 580 527 
4 480 479 408 339 
4 791 795 777 808 
4 394 338 396 476 
4 719 758 817 790 
4 662 622 653 708 
4 814 811 756 785 
4 312 240 180 311 
4 339 408 368 286 
4 770 815 779 736 
4 800 815 835 834 
4 129 225 51 52 
4 240 131 12 13 
4 558 574 492 518 
4 375 262 122 244 
4 245 123 21 22 
4 385 480 339 258 
4 665 611 751 720 
4 441 465 576 500 
4 371 205 316 334 
4 12 131 179 11 
4 199 278 179 131 
4 608 656 613 556 
4 313 181 136 205 
4 676 653 622 560 
4 679 721 780 758 
4 241 277 183 182 
4 523 469 504 589 
4 641 554 499 542 
4 432 334 376 390 
4 541 642 594 448 
4 589 504 560 622 
4 123 178 20 21 
4 199 312 322 428 
4 799 775 854 804 
4 382 447 434 323 
4 712 647 555 628 
4 580 526 463 479 
4 241 194 259 366 
4 781 789 809 844 
4 375 277 426 431 
4 311 365 398 427 
4 123 317 194 178 
4 801 819 857 845 
4 703 746 708 653 
4 819 801 734 793 
4 20 178 182 19 
4 369 433 494 389 
4 262 375 431 482 
4 497 526 628 555 
4 365 311 180 242 
4 795 791 746 703 
4 489 593 546 456 
4 624 652 725 625 
4 783 784 762 735 
4 812 836 770 811 
4 713 732 794 714 
4 583 638 721 679 
4 666 722 793 734 
4 609 621 706 651 
4 708 707 623 662 
4 612 627 722 666 
4 618 569 643 686 
4 200 284 407 367 
4 690 749 712 656 
4 704 744 795 703 
4 458 488 468 539 
4 785 766 849 814 
4 724 648 735 762 
4 706 705 742 778 
4 719 690 656 608 
4 639 557 443 547 
4 773 760 726 782 
4 426 277 241 366 
4 628 613 656 712 
4 365 262 482 398 
4 563 575 481 528 
4 376 428 491 390 
4 316 243 179 278 
4 431 426 456 540 
4 693 710 641 663 
4 722 627 555 647 
4 686 716 654 618 
4 240 13 14 180 
4 793 722 647 733 
4 768 832 828 796 
4 129 168 284 200 
4 375 244 183 277 
4 627 612 546 593 
4 426 366 489 456 
4 594 642 684 610 
4 642 616 727 684 
4 489 366 259 383 
4 836 835 815 770 
4 540 567 616 592 
4 402 485 520 521 
4 684 727 743 759 
4 390 443 517 432 
4 241 182 178 194 
4 593 489 383 497 
4 662 623 503 590 
4 463 383 259 341 
4 545 440 321 435 
4 551 584 685 601 
4 189 252 380 280 
4 312 311 427 322 
4 812 809 789 740 
4 777 826 853 808 
4 18 19 182 183 
4 408 341 317 368 
4 561 625 725 675 
4 736 756 811 770 
4 14 15 242 180 
4 18 183 244 17 
4 390 491 547 443 
4 592 482 431 540 
4 840 841 806 852 
4 323 434 314 192 
4 70 246 130 69 
4 245 175 286 368 
4 389 494 596 507 
4 825 743 698 792 
4 574 558 661 621 
4 826 777 757 794 
4 858 825 792 831 
4 740 789 749 690 
4 592 541 398 482 
4 250 377 261 139 
4 334 432 459 371 
4 123 245 368 317 
4 711 720 785 756 
4 724 681 557 639 
4 584 551 440 545 
4 188 279 379 249 
4 523 483 367 407 
4 398 541 448 427 
4 737 848 820 782 
4 130 246 319 201 
4 759 723 610 684 
4 11 179 243 10 
4 761 699 775 799 
4 858 832 768 825 
4 499 554 617 595 
4 808 843 827 791 
4 522 462 389 507 
4 782 820 852 773 
4 825 768 759 743 
4 678 614 561 675 
4 554 649 699 617 
4 856 855 828 832 
4 795 744 757 777 
4 796 735 648 723 
4 181 8 9 136 
4 262 365 242 122 
4 686 643 557 681 
4 367 327 294 200 
4 484 370 314 434 
4 567 540 456 546 
4 775 699 649 730 
4 683 602 568 640 
4 734 801 831 792 
4 341 259 194 317 
4 590 503 387 483 
4 682 624 502 598 
4 848 737 799 804 
4 598 502 487 543 
4 293 429 485 377 
4 462 522 585 461 
4 610 597 511 594 
4 618 654 620 562 
4 370 248 186 314 
4 377 485 402 261 
4 778 741 651 706 
4 542 499 447 382 
4 294 293 161 225 
4 666 734 792 698 
4 507 561 614 522 
4 853 826 806 841 
4 779 730 649 710 
4 546 612 680 567 
4 490 511 547 491 
4 16 17 244 122 
4 185 130 201 300 
4 322 427 448 490 
4 428 376 278 199 
4 484 435 318 370 
4 714 682 602 713 
4 436 373 264 399 
4 762 715 681 724 
4 554 641 710 649 
4 596 494 487 502 
4 512 430 321 440 
4 602 683 760 713 
4 486 379 279 430 
4 138 254 381 285 
4 247 184 71 72 
4 373 315 184 247 
4 248 78 79 186 
4 370 318 144 248 
4 640 568 449 548 
4 379 264 120 249 
4 16 122 242 15 
4 245 22 23 175 
4 246 70 71 184 
4 249 74 75 188 
4 249 120 73 74 
4 248 144 77 78 
4 189 280 211 147 
4 625 596 502 624 
4 852 806 732 773 
4 279 188 187 193 
4 247 72 73 120 
4 159 148 289 208 
4 436 328 315 373 
4 597 610 723 648 
4 597 648 724 639 
4 283 208 410 347 
4 794 757 652 714 
4 542 575 663 641 
4 495 404 280 380 
4 659 645 572 688 
4 545 544 595 584 
4 205 371 400 313 
4 8 181 251 7 
4 455 572 645 513 
4 250 49 50 161 
4 595 544 447 499 
4 225 161 50 51 
4 723 759 768 796 
4 598 543 449 568 
4 735 796 828 783 
4 685 761 689 601 
4 181 313 372 251 
4 631 585 522 614 
4 198 266 405 374 
4 548 449 399 486 
4 10 243 136 9 
4 574 501 386 492 
4 621 609 501 574 
4 280 404 362 211 
4 518 492 374 405 
4 369 389 462 333 
4 570 454 387 503 
4 374 326 288 198 
4 327 367 483 387 
4 377 250 161 293 
4 186 121 192 314 
4 728 659 688 702 
4 826 794 732 806 
4 347 410 528 481 
4 744 725 652 757 
4 543 487 328 436 
4 572 455 386 501 
4 310 255 138 285 
4 207 320 211 362 
4 300 333 406 270 
4 318 435 321 193 
4 128 166 266 198 
4 217 67 68 185 
4 252 47 48 139 
4 250 139 48 49 
4 102 103 255 169 
4 729 687 623 707 
4 798 746 791 827 
4 382 481 575 542 
4 193 321 430 279 
4 288 287 158 215 
4 79 80 121 186 
4 144 318 193 187 
4 494 433 328 487 
4 77 144 187 76 
4 433 369 201 319 
4 75 76 187 188 
4 493 378 287 418 
4 707 708 746 798 
4 380 252 139 261 
4 688 572 501 609 
4 105 254 138 104 
4 461 406 333 462 
4 334 316 278 376 
4 378 253 158 287 
4 270 217 185 300 
4 492 386 326 374 
4 495 380 261 402 
4 401 493 513 550 
4 215 158 108 109 
4 253 107 108 158 
4 68 69 130 185 
4 251 372 302 143 
4 252 189 46 47 
4 254 105 106 152 
4 253 152 106 107 
4 7 251 143 6 
4 255 103 104 138 
4 333 300 201 369 
4 143 302 257 157 
4 191 4 5 157 
4 438 381 260 401 
4 229 153 256 320 
4 320 256 147 211 
4 45 46 189 147 
4 5 6 143 157 
4 119 0 4 191 
CELL_TYPES 800 
9  
9  
9  
9  
9  
9  
9  
9  
9  
9  
9  
9  
9  
9  
9  
9  
9  
9  
9  
9  
9  
9  
9  
9  
9  
9  
9  
9  
9  
9  
9  
9  
9  
9  
9  
9  
9  
9  
9  
9  
9  
9  
9  
9  
9  
9  
9  
9  
9  
9  
9  
9  
9  
9  
9  
9  
9  
9  
9  
9  
9  
9  
9  
9  
9  
9  
9  
9  
9  
9  
9  
9  
9  
9  
9  
9  
9  
9  
9  
9  
9  
9  
9  
9  
9  
9  
9  
9  
9  
9  
9  
9  
9  
9  
9  
9  
9  
9  
9  
9  
9  
9  
9  
9  
9  
9  
9  
9  
9  
9  
9  
9  
9  
9  
9  
9  
9  
9  
9  
9  
9  
9  
9  
9  
9  
9  
9  
9  
9  
9  
9  
9  
9  
9  
9  
9  
9  
9  
9  
9  
9  
9  
9  
9  
9  
9  
9  
9  
9  
9  
9  
9  
9  
9  
9  
9  
9  
9  
9  
9  
9  
9  
9  
9  
9  
9  
9  
9  
9  
9  
9  
9  
9  
9  
9  
9  
9  
9  
9  
9  
9  
9  
9  
9  
9  
9  
9  
9  
9  
9  
9  
9  
9  
9  
9  
9  
9  
9  
9  
9  
9  
9  
9  
9  
9  
9  
9  
9  
9  
9  
9  
9  
9  
9  
9  
9  
9  
9  
9  
9  
9  
9  
9  
9  
9  
9  
9  
9  
9  
9  
9  
9  
9  
9  
9  
9  
9  
9  
9  
9  
9  
9  
9  
9  
9  
9  
9  
9  
9  
9  
9  
9  
9  
9  
9  
9  
9  
9  
9  
9  
9  
9  
9  
9  
9  
9  
9  
9  
9  
9  
9  
9  
9  
9  
9  
9  
9  
9  
9  
9  
9  
9  
9  
9  
9  
9  
9  
9  
9  
9  
9  
9  
9  
9  
9  
9  
9  
9  
9  
9  
9  
9  
9  
9  
9  
9  
9  
9  
9  
9  
9  
9  
9  
9  
9  
9  
9  
9  
9  
9  
9  
9  
9  
9  
9  
9  
9  
9  
9  
9  
9  
9  
9  
9  
9  
9  
9  
9  
9  
9  
9  
9  
9  
9  
9  
9  
9  
9  
9  
9  
9  
9  
9  
9  
9  
9  
9  
9  
9  
9  
9  
9  
9  
9  
9  
9  
9  
9  
9  
9  
9  
9  
9  
9  
9  
9  
9  
9  
9  
9  
9  
9  
9  
9  
9  
9  
9  
9  
9  
9  
9  
9  
9  
9  
9  
9  
9  
9  
9  
9  
9  
9  
9  
9  
9  
9  
9  
9  
9  
9  
9  
9  
9  
9  
9  
9  
9  
9  
9  
9  
9  
9  
9  
9  
9  
9  
9  
9  
9  
9  
9  
9  
9  
9  
9  
9  
9  
9  
9  
9  
9  
9  
9  
9  
9  
9  
9  
9  
9  
9  
9  
9  
9  
9  
9  
9  
9  
9  
9  
9  
9  
9  
9  
9  
9  
9  
9  
9  
9  
9  
9  
9  
9  
9  
9  
9  
9  
9  
9  
9  
9  
9  
9  
9  
9  
9  
9  
9  
9  
9  
9  
9  
9  
9  
9  
9  
9  
9  
9  
9  
9  
9  
9  
9  
9  
9  
9  
9  
9  
9  
9  
9  
9  
9  
9  
9  
9  
9  
9  
9  
9  
9  
9  
9  
9  
9  
9  
9  
9  
9  
9  
9  
9  
9  
9  
9  
9  
9  
9  
9  
9  
9  
9  
9  
9  
9  
9  
9  
9  
9  
9  
9  
9  
9  
9  
9  
9  
9  
9  
9  
9  
9  
9  
9  
9  
9  
9  
9  
9  
9  
9  
9  
9  
9  
9  
9  
9  
9  
9  
9  
9  
9  
9  
9  
9  
9  
9  
9  
9  
9  
9  
9  
9  
9  
9  
9  
9  
9  
9  
9  
9  
9  
9  
9  
9  
9  
9  
9  
9  
9  
9  
9  
9  
9  
9  
9  
9  
9  
9  
9  
9  
9  
9  
9  
9  
9  
9  
9  
9  
9  
9  
9  
9  
9  
9  
9  
9  
9  
9  
9  
9  
9  
9  
9  
9  
9  
9  
9  
9  
9  
9  
9  
9  
9  
9  
9  
9  
9  
9  
9  
9  
9  
9  
9  
9  
9  
9  
9  
9  
9  
9  
9  
9  
9  
9  
9  
9  
9  
9  
9  
9  
9  
9  
9  
9  
9  
9  
9  
9  
9  
9  
9  
9  
9  
9  
9  
9  
9  
9  
9  
9  
9  
9  
9  
9  
9  
9  
9  
9  
9  
9  
9  
9  
9  
9  
9  
9  
9  
9  
9  
9  
9  
9  
9  
9  
9  
9  
9  
9  
9  
9  
9  
9  
9  
9  
9  
9  
9  
9  
9  
9  
9  
9  
9  
9  
9  
9  
9  
9  
9  
9  
9  
9  
9  
9  
9  
9  
9  
9  
9  
9  
9  
9  
9  
9  
9  
9  
9  
9  
9  
9  
9  
9  
9  
9  
9  
9  
9  
9  
9  
9  
9  
9  
9  
9  
9  
9  
9  
9  
9  
9  
9  
9  
9  
9  
9  
9  
9  
9  
9  
POINT_DATA 861 
SCALARS pressure float 
LOOKUP_TABLE default 
0.16970824276432672 
0.006369748066895291 
-0.32573805595544714 
0.5678340502134923 
0.10624202801400136 
0.12464308811677051 
0.11544758349306901 
0.11761678110633189 
0.11325315058484857 
0.1113763863577214 
0.11071356625435028 
0.11178037411318972 
0.10080190630619335 
0.10199228874199802 
0.10091236502193243 
0.09221936975669236 
0.09140704779279771 
0.0920294859109477 
0.09223532542236965 
0.0914211654161133 
0.08898565614614337 
0.08543619243518304 
0.08226387910571288 
0.08066007550429893 
0.07984586236026499 
0.0791470204210147 
0.07801479176364304 
0.0763990422758841 
0.07470009984789654 
0.07356237144054834 
0.07275740192939624 
0.072736396675879 
0.07185907436186295 
0.07074645344832288 
0.06109877643328411 
0.06012470081296426 
0.05886508612207252 
0.058854216643878896 
0.05921098051532462 
0.05710758532399193 
0.060723158384832006 
0.05122720398714846 
0.06986729147369156 
0.06702880478309971 
0.05180275311768425 
0.0602446189669917 
0.057067946544145653 
0.05842816500315489 
0.057438063375981445 
0.056828635572204154 
0.056176286914982575 
0.053527849203312015 
0.05333305514570338 
0.05058610222071002 
0.05879967126194477 
0.044017653871207194 
0.09632664920041924 
-0.021115691356402434 
-4.5318758969206305 
-8.662116967041499 
-0.4210613405666242 
0.24070733084505913 
0.1245162358293386 
0.007860415206872494 
0.060327716209837276 
0.038180243036289696 
0.06403363362884235 
0.060127524650767775 
0.06794647384485579 
0.06701949534905965 
0.06809171351865118 
0.0696364350235944 
0.07122032625026586 
0.07282261640277189 
0.07423682445238328 
0.07519113920087803 
0.07571941793533278 
0.0762254026406794 
0.07718919535874433 
0.07994631585621735 
0.08296940092237953 
0.08638333766085377 
0.08599351475818104 
0.08869346055593232 
0.09302578232537612 
0.09744112433714326 
0.09634189023649081 
0.09861792487647439 
0.0996101222598951 
0.10000770979154026 
0.10233107855831042 
0.1096463578984061 
0.11038958955421017 
0.11109881734901213 
0.11156811445556189 
0.11313893855598002 
0.11250045390147143 
0.11412630825149293 
0.11394216175509286 
0.22751394784651344 
0.08260615498528959 
0.13594298840594002 
0.13432728497279192 
0.12928758829575218 
0.14319895293440202 
0.13606532558868856 
0.12433370998013331 
0.12183691594387343 
0.12126056795243355 
0.12146407014819535 
0.12150568946371486 
0.12129680628933846 
0.11991245325205134 
0.11776355219486034 
0.11667823825828877 
0.11582959826655848 
0.11815112996399522 
0.11580976632856237 
0.12459500440942381 
0.10928035576204782 
0.07281947448186003 
0.08355424312538165 
0.09184802731586762 
0.08537807036472236 
0.07501358150589728 
0.06953464176206184 
0.09659148705350853 
0.09880141577589657 
0.12124611083509435 
0.053495456815697416 
0.06790819988437229 
0.10659986977596562 
0.05887456863218338 
0.11239930060540453 
0.11818324921599452 
0.06003384893546977 
0.11189646211902578 
0.03936732013109999 
0.14120534923312095 
0.05734011165862129 
0.057367791372604754 
0.11725071709650797 
0.07918157199802939 
0.11851583594404096 
0.07649277899064232 
0.040649218152897834 
0.1081175984410407 
0.057195518930588364 
0.08216950148899571 
0.11108653147765721 
0.07276521815779048 
0.07780762385136933 
0.12409965675000376 
0.052368873221628746 
0.1182362126353048 
0.10377320310729118 
0.05081080439509719 
0.11789020365055797 
0.12157044117644167 
0.08642163869715631 
0.144450359508501 
0.05583821967994417 
0.11713219176359439 
0.07900736856456271 
0.07990854883999356 
0.10928630310997131 
0.12079690011106654 
0.04214942739227084 
0.05349097322779631 
0.1381155412510829 
0.05842211371771323 
0.11138792858806343 
0.059026858529191095 
0.05915842942798755 
0.07314007304975818 
0.08098047045090605 
0.0982613868629954 
0.09926756674826018 
0.08859978038740508 
0.1116137334635352 
0.10260664517056207 
0.1137007329300417 
0.09058795890942138 
0.09149758804984927 
0.06950997773435562 
0.06544615869875417 
0.07963221327390438 
0.07576155073843335 
0.07503510331967961 
0.057915006437489064 
-0.020964166693968025 
0.12376000029427613 
0.08179583865994289 
0.07576081639537689 
0.08844916867992071 
0.09817525413161195 
0.0799490548414531 
0.07275646869470148 
0.12135902870217989 
0.10745692701402061 
0.04843758023122694 
0.06747061060354154 
0.058269182552938184 
0.11801916693542247 
0.05328017557622515 
0.11075861557260201 
0.12322364477849046 
0.05778434320833482 
0.08713993691541215 
0.11036554176671237 
0.1270688196417297 
0.0575900515467802 
0.11966600266805869 
0.06069177001366052 
0.006019526865219542 
0.12137471534576989 
0.05308753827627243 
0.07158423025399747 
0.15333378155425462 
0.10173280988360675 
0.049656900560220596 
0.07910285811064696 
0.08500717964652212 
0.1291375315686499 
0.11702060708031468 
0.05420004516620953 
0.11347262630938965 
0.11860672492987405 
0.07640542875679746 
0.05816076049550037 
0.11195318216378419 
-0.06661285602965669 
0.05882202227584736 
0.05851334729648964 
0.0634343401420398 
0.07244002378967872 
0.11164359419799927 
0.07384635591519678 
0.09722214517275271 
0.09923468958839653 
0.10065496194776155 
0.09123302738519899 
0.09278032743029235 
0.11105208671605404 
0.09154382728662025 
0.08260245367151543 
0.06830538934426642 
0.07129282650669375 
0.07787596703791715 
0.07413520846429476 
0.05670709072304681 
0.11624459927383538 
0.05760136372577526 
0.12229484340215575 
0.13067039740147512 
0.13199281437224036 
0.05784950925138687 
0.11894219466693394 
0.07970152274275323 
0.0946430912027443 
0.1212792711049596 
0.05726426405633324 
0.09002960023738102 
0.11682908008955559 
0.07281263906153146 
0.11826903066208394 
0.12138840265502843 
0.05440112404567701 
0.020229309102024386 
0.04300690779378065 
0.061523904690349476 
0.04150503826308532 
0.11349951787517996 
0.091722326022889 
0.05858305074450544 
0.09665477669885031 
0.07644762766583572 
0.09167428995260635 
0.11109396516452792 
0.07530418256245017 
0.05772540108692733 
0.12032921257461317 
0.12012707454520744 
0.08707544819949761 
0.05469675349431002 
0.13559584511822723 
0.08046126503364856 
0.12146218365002057 
0.12127220993016265 
0.08945484943099552 
0.11692337497248191 
0.05875606779506043 
0.11508568752979666 
0.05587576913860825 
0.05683582580953003 
0.05822075743629199 
0.07814220961130541 
0.11149309829296024 
0.11186869822954115 
0.11107531300510651 
0.06841740035455737 
0.09964587533204934 
0.11854076335660213 
0.0525615554093682 
0.099791347393138 
0.07298451736726781 
0.07795768254387557 
0.07377950514226811 
0.07312606750312435 
0.05900848170639857 
0.12875822060876627 
0.10166552617840831 
0.10216583631353486 
0.11271250704123255 
0.08048260870273534 
0.07093123954825842 
0.11086646509935671 
0.08525790454256724 
0.07641432679028848 
0.06805258831736902 
0.05728142493345024 
0.07595777681153347 
0.09317354674781926 
0.09398781185477698 
0.07283021607698718 
0.1010184398533857 
0.1210903051012334 
0.05786127244478802 
0.06837953574279877 
0.05467792850444585 
0.1205978763142572 
0.05926274298898215 
0.11218027758730095 
0.06803869377977861 
0.1099478853184227 
0.060724745905281846 
0.11591882884034509 
0.0900587372449621 
0.052582326970699235 
0.08078489447947089 
0.058624390049174545 
0.08302327094681493 
0.07849911135547992 
0.10592967361147032 
0.11864361530160632 
0.11498888784252234 
0.11742869987969937 
0.08643364258903297 
0.054808234366365734 
0.05393984490793228 
0.07152411020140897 
0.07983586841251862 
0.059947186130944796 
0.09565076285143521 
0.0984400363048491 
0.11277778748268125 
0.07473294584614337 
0.0516518881807164 
0.06032350892163627 
0.11006393988899672 
0.10570229754547987 
0.05822455645321228 
0.05790925370792234 
0.07854950074395475 
0.10153894734281213 
0.09232266373991099 
0.09269400143590126 
0.056291084568626304 
0.08231360798532038 
0.06726652651008647 
0.07665269338536676 
0.10989015291731873 
0.11883096003544476 
0.07165357518382004 
0.1202622885632952 
0.09113557560184538 
0.11362873811736611 
0.05690262513898807 
0.12151544599299308 
0.07408753046673307 
0.05760454628268495 
0.12055468140618582 
0.06929034733243868 
0.09749239220034535 
0.103095074920057 
0.08021067172797273 
0.11828185308514698 
0.0564138505733136 
0.11283582292226033 
0.06853117342140032 
0.10991074465441002 
0.054704144539060535 
0.1142522038602915 
0.11729778606492876 
0.05282921700756889 
0.058218214621959544 
0.0547499355014336 
0.09328063186683572 
0.10049908007500852 
0.07295461874222868 
0.1044749995782667 
0.11837053344319684 
0.05741272958451687 
0.11587986770845109 
0.057872038018811106 
0.12368302548885594 
0.05140371805797612 
0.05352516930402653 
0.07616049063685687 
0.11594009082206959 
0.0894270573900238 
0.09234965532839416 
0.07195070392210173 
0.0590518517953807 
0.07913070329185777 
0.10880425958582315 
0.07249580593015166 
0.09891856734627719 
0.12155697474874298 
0.11394934017684721 
0.11313755557902808 
0.05939049155336638 
0.07647320350269142 
0.07310741919237697 
0.10409866190095987 
0.05489126756849807 
0.0925885869875675 
0.09838828545672515 
0.11010021539690681 
0.05647301566525276 
0.07548684270259813 
0.09200521936511497 
0.11016524644574331 
0.06394868769018205 
0.06889597306947368 
0.07567930329063764 
0.07152182631024331 
0.12333895428981745 
0.11576652231707907 
0.07383142355807397 
0.0760379702427172 
0.09042198513977219 
0.08033552180274053 
0.10875513838067075 
0.06685266964307728 
0.05924732304852307 
0.1109939365449913 
0.07945903113005572 
0.0986156413742546 
0.07023246728179171 
0.11390401692145996 
0.1139200605661541 
0.10366362404787359 
0.10656886181247811 
0.05666059228260888 
0.12743911446330417 
0.0935889623546175 
0.11405751748909357 
0.11440813816782071 
0.1099889058441555 
0.051808128620292104 
0.05137383741688006 
0.05651016434243787 
0.08664957153769783 
0.07194526239293113 
0.09138263167964945 
0.11069597121121443 
0.05868018464967322 
0.11074798172713278 
0.054986310150302385 
0.054619846741062475 
0.08465416997149015 
0.06004157778888944 
0.10369561050146871 
0.10277378771040051 
0.07438800930508645 
0.054828383546841955 
0.09623392094496841 
0.06109565525896231 
0.07722905574257005 
0.08081072977799167 
0.09493979556869787 
0.09214408626231432 
0.0579138664971752 
0.07730100620999007 
0.057066261403534144 
0.0759698645078483 
0.0628191435435577 
0.11481812623402207 
0.09305105827527964 
0.10141515827780934 
0.10623088264223889 
0.11843139173985222 
0.12039867856846255 
0.06347813693874153 
0.05775073150372594 
0.11443722042613123 
0.09112885601643447 
0.10372499706630091 
0.07625060936865444 
0.09181562398348868 
0.1115875895533389 
0.06423935974791486 
0.05606291881499856 
0.05552531630835058 
0.05943266407638047 
0.11361208162471921 
0.06220866304932952 
0.09126922221238583 
0.10610121154740208 
0.06805487715937084 
0.10103335506633897 
0.07553719026777489 
0.11967212285882849 
0.11426271066412988 
0.05481175368335859 
0.11220947169356552 
0.110067642370772 
0.1233741963903417 
0.05857240595181718 
0.05714913765008137 
0.057704383471759914 
0.05802346208632995 
0.055530543450464175 
0.11078172479342038 
0.0911889481788153 
0.08744540289958312 
0.08070771031379087 
0.08860047477316511 
0.07065651973399567 
0.0723887911141201 
0.0767812607629617 
0.08007313629681216 
0.11403773211998235 
0.06025554631579319 
0.06344666924000872 
0.10507891765804157 
0.0553400962314625 
0.1030765786029739 
0.11211805492460176 
0.09363436283841352 
0.09630635411587023 
0.0864493259199124 
0.0640486924154512 
0.07511904850377696 
0.0757192409139843 
0.09387660011796982 
0.11038669147694892 
0.0788032731380628 
0.05805959139733056 
0.1162308701989352 
0.07592348136623707 
0.07411410453183642 
0.0693709045361058 
0.07875585631586997 
0.0927070621256086 
0.08072111332435808 
0.10788387063364095 
0.10674266944004221 
0.05915161037372434 
0.05584067096179109 
0.0601615819735866 
0.11121649468108523 
0.09015515616456661 
0.09110160523242913 
0.10500766004914629 
0.104395449311272 
0.0945318872748886 
0.07253127886857223 
0.110468421323278 
0.05622567752722916 
0.1136993937248383 
0.10152606023916962 
0.05723946713338509 
0.11167608697864588 
0.07901056793711773 
0.09163424385187512 
0.06732983878227854 
0.061652061627634765 
0.1202238559472478 
0.08285648996386008 
0.10012371784053105 
0.07287677669005668 
0.08027356343196454 
0.07612317674290252 
0.05492953975746363 
0.07281112253802051 
0.10318711572383946 
0.054942114669526455 
0.05576900490549167 
0.055373707356670514 
0.07919116247327973 
0.0957789676419816 
0.09353412246262685 
0.09524108695133028 
0.07255796571762478 
0.0630739815551802 
0.10246982660785965 
0.06100604832438493 
0.07600000780729696 
0.058263301299506104 
0.07609043332304749 
0.07284341996576064 
0.09670131923607032 
0.07310572700365632 
0.07567899445974352 
0.07753528524974454 
0.10338525866686277 
0.08154745038254599 
0.10837874061049908 
0.09074429349365226 
0.09161541443427401 
0.09430322591082067 
0.08185427509890597 
0.05808597793120173 
0.10425710880186011 
0.09511271879553715 
0.07537489766571662 
0.11018619858246109 
0.056189974897120035 
0.11315888544255848 
0.108650967947806 
0.05542668531822266 
0.0540158625421342 
0.06443333896308456 
0.0627305093520481 
0.11284590194302731 
0.0938016601173042 
0.08647039246329671 
0.07545586909128717 
0.08714091022496322 
0.05622501464904711 
0.07334075114785368 
0.06283672796194971 
0.10322024063015682 
0.11076165718544102 
0.0726113228234224 
0.06136363183680046 
0.08052504326014603 
0.11428018522886836 
0.07852105492747949 
0.08092289015157333 
0.09645432351126695 
0.10998229732125259 
0.05843395176031396 
0.11180538920444406 
0.07380800460179332 
0.10122311929187341 
0.10257235116241288 
0.07847073839905397 
0.10491039378937282 
0.10805501334324225 
0.06585918809158225 
0.05668157962348398 
0.1069920932193702 
0.07337731191736302 
0.07407817001487779 
0.09405479477287396 
0.07556129116320884 
0.10962980607191436 
0.05973943129665792 
0.10363501943280308 
0.05581109815552608 
0.08110455127368624 
0.07324551961287994 
0.09690116372305504 
0.09498136820047098 
0.1061094984317704 
0.07754027365807323 
0.07785611792702746 
0.09158399696064934 
0.10450359064564624 
0.06201966671683688 
0.061784143202861776 
0.10152859303904732 
0.06002606395102404 
0.05645732955953582 
0.057371264649744985 
0.05700181502881623 
0.08000011919876206 
0.09497682424863264 
0.10864672456814871 
0.06301791032702499 
0.07856944139379966 
0.09721031184339955 
0.07612754064975218 
0.10881369359762304 
0.05320712674517711 
0.1078522853694894 
0.0760119681313987 
0.08160454771215869 
0.07387947690972853 
0.09043169738956687 
0.08011774372748881 
0.0646773237086493 
0.06417997296825777 
0.0993370468766628 
0.10609829847850397 
0.09507597485008874 
0.0774071737328314 
0.10704547720555928 
0.10515474241264797 
0.10810388158171219 
0.05656273431628045 
0.05258842188689169 
0.10865170136902179 
0.10804545315317521 
0.05792920844032695 
0.053088781680968464 
0.06677014365577993 
0.0796803583055817 
0.08048171308941293 
0.08759916554845283 
0.07168004196873047 
0.06922234532152743 
0.10794103309089656 
0.10837612899371737 
0.07292777737352772 
0.07335602067120338 
0.08084936853623603 
0.08957826129523046 
0.07911388752275286 
0.09295797696226099 
0.09893616936325932 
0.10587562986557869 
0.06271637171178439 
0.07547580018023645 
0.09519625315904423 
0.1089858945004377 
0.07148566123542721 
0.07848499647719122 
0.0792042236152238 
0.07194302176557267 
0.09400611400306937 
0.09482876457064761 
0.10230339485606134 
0.08093570792067169 
0.07626368427434978 
0.07368589665629573 
0.10535645548833406 
0.0893028325762998 
0.10789950404965827 
0.10727421987942796 
0.09592293566999184 
0.06354266425295128 
0.06302736124681117 
0.06782712075582395 
0.0880460400238629 
0.07253039598701294 
0.08926760241563249 
0.1057447609553874 
0.09002749507213077 
0.094328520192361 
0.07380350521463655 
0.09881207841028274 
0.10857791219153687 
0.08367160567666175 
0.0737732782146539 
0.07908403133067941 
0.09617511638304659 
0.07414654332415939 
0.07645147071174047 
0.10652281132076948 
0.10733068417084475 
0.06494409852748097 
0.07087663337911172 
0.08820932656323217 
0.08315524257588092 
0.09656819601657417 
0.07381667677376708 
0.0815645633474688 
0.06653270756060775 
0.07686263013815206 
0.0732769172066778 
0.09398416527312874 
0.07759927598523707 
0.10700002672521362 
0.07334882656546281 
0.10799191241502007 
0.07955791835801065 
0.07977985459655823 
0.09069576726515975 
0.07503318483561813 
0.10368223381713132 
0.11223002613132804 
0.08664693309145088 
0.07180888472192354 
0.07434781971243584 
0.10512270999147515 
0.08996901200703535 
0.0765644171778227 
0.06851031426730429 
0.09548097220008837 
0.09368179187188709 
0.06941658972871505 
0.06937231641066004 
0.09882749672936729 
0.10652567933414785 
0.06937865877829796 
0.07697906542962706 
0.07833648764278496 
0.0946164194691366 
0.09511610842576596 
0.07826537116407534 
0.0775507857922699 
0.07668708712005341 
0.07121547401498525 
0.07069785673241766 
0.06977968554391509 
0.08908604529499307 
0.10539214518671002 
0.08383313966085808 
0.09029328507180047 
0.06865295922901624 
0.08732379475686973 
0.0787295788061958 
0.11085893478792677 
0.07762437160850455 
0.0791870353500509 
0.0930907953076724 
0.07483957674672402 
0.06948069405589354 
0.09595260212345418 
0.09019131605112839 
0.09889532937418871 
0.09608154998623707 
0.07057820919019707 
0.0688036833099469 
0.09135466858945475 
0.08636795936124216 
0.09519165571259205 
0.09622447135682619 
0.09665452080385839 
0.10314707636848519 
0.0780489972305174 
0.07765419898906603 
0.07456851700832262 
0.07746940767335427 
0.0808367406903454 
0.076407030018493 
0.06764684570165912 
0.07057437509043421 
0.07018025525318126 
0.06917249603673824 
0.08866654246078344 
0.09858452291921656 
0.10682061374351152 
0.09719302780748067 
0.07658079711849113 
0.08721653566918879 
0.07868180099115976 
0.09849973744618712 
0.07305208856735612 
0.07048906867698293 
0.07784493602606257 
0.09795186866925645 
0.0980552577433163 
0.08882899261499393 
0.0962783935232713 
0.07802062210723446 
0.09663022605890771 
