$MeshFormat
2.2 0 8
$EndMeshFormat
$Nodes
404
1 0 0 0
2 1 0 0
3 1 1 0
4 0 1 0
5 0.09999999999981467 0 0
6 0.1999999999995579 0 0
7 0.2999999999992664 0 0
8 0.3999999999989749 0 0
9 0.4999999999986943 0 0
10 0.5999999999989468 0 0
11 0.69999999999921 0 0
12 0.7999999999994734 0 0
13 0.8999999999997368 0 0
14 0.04999999999989927 0 0
15 0.1499999999997036 0 0
16 0.2499999999994121 0 0
17 0.3499999999991207 0 0
18 0.4499999999988346 0 0
19 0.5499999999988205 0 0
20 0.6499999999990784 0 0
21 0.7499999999993416 0 0
22 0.8499999999996051 0 0
23 0.9499999999998684 0 0
24 1 0.09999999999981467 0
25 1 0.1999999999995579 0
26 1 0.2999999999992664 0
27 1 0.3999999999989749 0
28 1 0.4999999999986943 0
29 1 0.5999999999989468 0
30 1 0.69999999999921 0
31 1 0.7999999999994734 0
32 1 0.8999999999997368 0
33 1 0.04999999999989927 0
34 1 0.1499999999997036 0
35 1 0.2499999999994121 0
36 1 0.3499999999991207 0
37 1 0.4499999999988346 0
38 1 0.5499999999988205 0
39 1 0.6499999999990784 0
40 1 0.7499999999993416 0
41 1 0.8499999999996051 0
42 1 0.9499999999998684 0
43 0.8999999999995836 1 0
44 0.7999999999999998 1 0
45 0.7000000000006934 1 0
46 0.6000000000013869 1 0
47 0.5000000000020587 1 0
48 0.4000000000016644 1 0
49 0.3000000000012483 1 0
50 0.2000000000008322 1 0
51 0.100000000000416 1 0
52 0.9499999999998356 1 0
53 0.8499999999998515 1 0
54 0.7500000000003858 1 0
55 0.6500000000010593 1 0
56 0.5500000000016854 1 0
57 0.4500000000018616 1 0
58 0.3500000000014563 1 0
59 0.2500000000010403 1 0
60 0.1500000000006241 1 0
61 0.05000000000020799 1 0
62 0 0.8999999999995836 0
63 0 0.7999999999999998 0
64 0 0.7000000000006934 0
65 0 0.6000000000013869 0
66 0 0.5000000000020587 0
67 0 0.4000000000016644 0
68 0 0.3000000000012483 0
69 0 0.2000000000008322 0
70 0 0.100000000000416 0
71 0 0.9499999999998356 0
72 0 0.8499999999998515 0
73 0 0.7500000000003858 0
74 0 0.6500000000010593 0
75 0 0.5500000000016854 0
76 0 0.4500000000018616 0
77 0 0.3500000000014563 0
78 0 0.2500000000010403 0
79 0 0.1500000000006241 0
80 0 0.05000000000020799 0
81 0.500988810415201 0.4928119788655532 0
82 0.6944713303513169 0.7240101543899125 0
83 0.2800191496039389 0.7218509412772597 0
84 0.7243633903715809 0.3072757826096321 0
85 0.3060973509874328 0.2712858843823674 0
86 0.5129773643241243 0.7802199240305213 0
87 0.2129406358894516 0.4934377535524189 0
88 0.7815748511339297 0.4875993640589439 0
89 0.4837332921421854 0.2159488876849637 0
90 0.8090776736823294 0.8116743733993814 0
91 0.1906624620478173 0.8092606823032963 0
92 0.8117408940104873 0.1911374616164237 0
93 0.1910923950339237 0.1876062576887347 0
94 0.6232637146324836 0.8348990413337359 0
95 0.1479966247267595 0.6307439516277542 0
96 0.3715015416454985 0.8462879243185728 0
97 0.8457673437747391 0.6283397447995077 0
98 0.8354418625678702 0.377123084659696 0
99 0.1560661683383548 0.3713015050482817 0
100 0.3761930131111745 0.1631039806524653 0
101 0.6277801259645621 0.1545492570114095 0
102 0.5617517171595091 0.6415321130397039 0
103 0.3865597476085572 0.55781421034533 0
104 0.6452879482779587 0.4448351324442509 0
105 0.4273915159371582 0.3275910552835981 0
106 0.4380766487688236 0.6498087689411602 0
107 0.6538042679828699 0.5634692801215813 0
108 0.3827643444310881 0.4430154059642359 0
109 0.5423105673252484 0.3720532518738586 0
110 0.4620252598153666 0.8932390489708836 0
111 0.1142415592033878 0.4629577370323665 0
112 0.8934315713488904 0.5380073174915088 0
113 0.5373841885335828 0.106336755298763 0
114 0.7126605558508582 0.9117255089555532 0
115 0.08926846610773177 0.7111227353643487 0
116 0.9118341557556412 0.2874134550513137 0
117 0.2872927869651163 0.08784867633281765 0
118 0.9083052628837389 0.7098702212883864 0
119 0.2903284974559614 0.9088560429695649 0
120 0.7098119810073555 0.09179988924750161 0
121 0.09210803195795388 0.2898590192502407 0
122 0.5997334173909865 0.7475210354191998 0
123 0.2530213748424704 0.6038714748892627 0
124 0.7488596775622184 0.4022175864288969 0
125 0.3978062806873103 0.2449389657380167 0
126 0.3932878738209836 0.7469335393160104 0
127 0.7468032345336394 0.6044189927356755 0
128 0.2581297042675755 0.3966748401629419 0
129 0.6003984117498298 0.2563649488280242 0
130 0.9039017939034379 0.9042349404098798 0
131 0.09612456263045638 0.9038301417681266 0
132 0.904246877821712 0.0961188892610409 0
133 0.09612055191510377 0.09567150075964506 0
134 0.5590536589654083 0.9200054245260096 0
135 0.1249396809167685 0.5674681775036469 0
136 0.9202080170631463 0.4410185201570008 0
137 0.4407543754806155 0.0794766618746818 0
138 0.8020683856468749 0.6950205084484379 0
139 0.3050912849659513 0.8043433029839302 0
140 0.6944480381739199 0.1989712270546416 0
141 0.199570855699923 0.3037925384724441 0
142 0.7110754803776971 0.8195914685047265 0
143 0.1940688821273306 0.6954758292174374 0
144 0.8198523259611824 0.2894719071922714 0
145 0.2888679396225931 0.1785483810449425 0
146 0.4680503023515885 0.5901534206621253 0
147 0.5936608884038198 0.5382956759576816 0
148 0.4179751381952757 0.4986914726088261 0
149 0.5622543055773976 0.4336232464486731 0
150 0.6678581356953888 0.6309566728395384 0
151 0.349685906915625 0.6572120481014102 0
152 0.6289012867056598 0.3404359991364575 0
153 0.3416492727874025 0.3613830213933145 0
154 0.6216137487937025 0.9177045332800265 0
155 0.08902884333149869 0.623930139522781 0
156 0.9178925021878279 0.3785061435767462 0
157 0.378243589765055 0.08165457132854015 0
158 0.9098767896336989 0.6191809326508689 0
159 0.6188690510074977 0.09023006181164625 0
160 0.3808240134131985 0.9101653481220837 0
161 0.09190453003211639 0.3807137684731496 0
162 0.8066677078941894 0.9074338360807568 0
163 0.09416355485136328 0.8052630557269392 0
164 0.9074838092538117 0.19341219386058 0
165 0.1933518685602379 0.09224484076278215 0
166 0.904877464884258 0.8053696456648073 0
167 0.8053412236165933 0.09524423759896232 0
168 0.1951762780075613 0.9050984992753829 0
169 0.0953229811408786 0.1943622997744162 0
170 0.4726424323580928 0.7039045231739822 0
171 0.2963131071089529 0.4999240535886222 0
172 0.7068037373475422 0.5275882476250341 0
173 0.5134028094660571 0.2934661674052491 0
174 0.5397003084460942 0.8610485904653739 0
175 0.1645259149377236 0.5571653982410667 0
176 0.8615838109974541 0.4605958539729306 0
177 0.4593418176521782 0.137280161263108 0
178 0.4311932319471198 0.8176065426106538 0
179 0.1859891608057399 0.4319264099070146 0
180 0.8178588297721932 0.5685882698701433 0
181 0.5660410617224857 0.1822929804613047 0
182 0.4615488510208542 0.4053860148019073 0
183 0.9521234389108559 0.09805944463042779 0
184 0.9021234389107244 0.04805944463052045 0
185 0.09806027595745923 0.04783575037982253 0
186 0.04806027595755188 0.09783575038003052 0
187 0.9019508969515108 0.95211747020494 0
188 0.951950896951719 0.9021174702048083 0
189 0.04806228131522819 0.901915070883855 0
190 0.09806228131543618 0.9519150708840634 0
191 0.6114985660117351 0.7912100383764679 0
192 0.6471023738711517 0.7357655949045561 0
193 0.7027734053645069 0.7718008114473195 0
194 0.6671695975050904 0.8272452549192313 0
195 0.3869996468992424 0.2040214731952411 0
196 0.3519518158373716 0.2581124250601921 0
197 0.297482645305013 0.224917132713655 0
198 0.3325304763668838 0.1708261808487039 0
199 0.7921507700650443 0.3896703355442964 0
200 0.7366115339668997 0.3547466845192645 0
201 0.7721078581663816 0.2983738449009518 0
202 0.8276470942645263 0.3332974959259837 0
203 0.9549383948168495 0.6095904663249079 0
204 0.9016541804912946 0.5785941250711888 0
205 0.9467157856744453 0.5190036587451015 0
206 0.6094345255032223 0.04511503090582313 0
207 0.5781266197705403 0.09828340855520462 0
208 0.5186920942661386 0.0531683776493815 0
209 0.3904120067074315 0.9550826740610419 0
210 0.4214246366142825 0.9017021985464837 0
211 0.4810126299087126 0.9466195244854418 0
212 0.0459522650160582 0.390356884237407 0
213 0.1030730446177521 0.4218357527527581 0
214 0.05712077960169389 0.4814788685172126 0
215 0.6194744183408892 0.4915654042009663 0
216 0.6760458428127505 0.4862116900346425 0
217 0.6803040026652061 0.5455287638733077 0
218 0.6237325781933449 0.5508824780396314 0
219 0.4444701834790062 0.3664885350427527 0
220 0.4703971627016076 0.3105286113444236 0
221 0.5278566883956528 0.3327597096395538 0
222 0.5019297091730514 0.388719633337883 0
223 0.453063475560206 0.6199810948016428 0
224 0.3938812778422243 0.6535104085212853 0
225 0.3681228272620911 0.6075131292233701 0
226 0.4273050249800728 0.5739838155037276 0
227 0.4221565977259711 0.4242007103830716 0
228 0.3622068086092453 0.4021992136787752 0
229 0.3845203943622804 0.3444870383384563 0
230 0.4022674429019165 0.528252841477078 0
231 0.4594819743052384 0.4957517257371896 0
232 0.4845195563833948 0.5414826997638392 0
233 0.5473248494095104 0.5155538274116174 0
234 0.5316215579962993 0.4632176126571131 0
235 0.6037711269276782 0.4392291894464621 0
236 0.6148049264274489 0.6362443929396211 0
237 0.6811647330233528 0.6774834136147254 0
238 0.5807425672752478 0.6945265742294519 0
239 0.2235451284849005 0.6496736520533501 0
240 0.3013536408790477 0.6305417614953365 0
241 0.3148525282597819 0.6895314946893349 0
242 0.2370440158656348 0.7086633852473485 0
243 0.6370946174918093 0.3926355657903542 0
244 0.6766323385386204 0.3238558908730448 0
245 0.6970738129200885 0.4235263594365739 0
246 0.3238733118874177 0.316334452887841 0
247 0.4125988983122342 0.2862650105108074 0
248 0.5777063027816645 0.5899138944986928 0
249 0.6608312018391294 0.5972129764805598 0
250 0.552282436451323 0.4028382491612659 0
251 0.5856059270154541 0.356244625505158 0
252 0.4928098983411086 0.7420622236022518 0
253 0.4720852981356221 0.7989132333205875 0
254 0.4122405528840517 0.7822700409633321 0
255 0.4329651530895382 0.7254190312449963 0
256 0.744189294240736 0.507593805841989 0
257 0.7997168404530615 0.5280938169645436 0
258 0.7823310321529162 0.5865036313029094 0
259 0.7268034859405907 0.5660036201803548 0
260 0.2546268714992022 0.4966809035705206 0
261 0.1994648983475957 0.4626820817297168 0
262 0.2220594325366577 0.4143006250349782 0
263 0.2772214056882641 0.448299446875782 0
264 0.4985680508041213 0.2547075275451064 0
265 0.5248871769323356 0.1991209340731342 0
266 0.5832197367361578 0.2193289646446644 0
267 0.5569006106079435 0.2749155581166366 0
268 0.7063302779257759 0.9558627544777766 0
269 0.7596641318725238 0.909579672518155 0
270 0.8033338539470947 0.9537169180403784 0
271 0.04463423305386589 0.705561367682521 0
272 0.09171601047954753 0.758192895545644 0
273 0.04708177742568164 0.8026315278634695 0
274 0.9559170778778205 0.29370672752529 0
275 0.9096589825047264 0.2404128244559469 0
276 0.9537419046269058 0.1967060969300689 0
277 0.2936463934821913 0.04392433816640882 0
278 0.2403223277626771 0.09004675854779989 0
279 0.1966759342798979 0.04612242038139108 0
280 0.9524387324421291 0.8026848228321404 0
281 0.9065913638839984 0.7576199334765968 0
282 0.9541526314418695 0.7049351106437982 0
283 0.8026706118080333 0.04762211879948116 0
284 0.7575766023119744 0.09352206342323197 0
285 0.7049059905032828 0.04589994462375081 0
286 0.1975881390041968 0.9525492496376915 0
287 0.2427523877317614 0.9069772711224739 0
288 0.2951642487286048 0.9544280214847825 0
289 0.0476614905704393 0.1971811498876242 0
290 0.09371550654941624 0.2421106595123284 0
291 0.04605401597897694 0.2949295096257445 0
292 0.5008627841307304 0.8771438197181287 0
293 0.5493769837057512 0.8905270074956917 0
294 0.5295268294837334 0.9600027122630048 0
295 0.1393837370705557 0.5100615676367166 0
296 0.1447327979272461 0.5623167878723567 0
297 0.06246984045838427 0.5337340887528528 0
298 0.8775076911731723 0.4993015857322197 0
299 0.8908959140303001 0.4508071870649657 0
300 0.9601040085315731 0.4705092600778475 0
301 0.4983630030928805 0.1218084582809355 0
302 0.4500480965663968 0.1083784115688949 0
303 0.4703771877396549 0.0397383309373409 0
304 0.9058653435377618 0.1447655415608105 0
305 0.1447362102376709 0.0939581707612136 0
306 0.8552847508988137 0.9058343882453184 0
307 0.09514405874090984 0.8545465987475329 0
308 0.904389629393848 0.8548022930373436 0
309 0.8547940507191527 0.09568156343000161 0
310 0.1456504203190088 0.9044643205217547 0
311 0.09572176652799119 0.1450169002670306 0
312 0.2746672409757116 0.5518977642389424 0
313 0.341436427358755 0.528869131966976 0
314 0.4466092458812432 0.8554227957907687 0
315 0.5263388363851093 0.8206342572479476 0
316 0.1501153600045638 0.4474420734696906 0
317 0.1887332754135876 0.5253015758967428 0
318 0.3761627775293486 0.8782266362203283 0
319 0.4013473867963092 0.8319472334646133 0
320 0.1239853491852356 0.3760076367607157 0
321 0.1710276645720473 0.4016139574776482 0
322 0.8556452005605417 0.5532977936808261 0
323 0.8215793310656918 0.4740976090159372 0
324 0.5517126251280342 0.1443148678800339 0
325 0.4715375548971818 0.1766145244740358 0
326 0.8778220667042189 0.6237603387251883 0
327 0.8318130867734661 0.5984640073348255 0
328 0.6233245884860299 0.1223896594115279 0
329 0.596910593843524 0.1684211187363571 0
330 0.3382964133057249 0.8253156136512515 0
331 0.33557625543458 0.9095106955458243 0
332 0.2977098912109564 0.8565996729767476 0
333 0.7118680181142776 0.8656584887301398 0
334 0.6671371523222803 0.9147150211177899 0
335 0.6224387317130931 0.8763017873068812 0
336 0.1416686741175312 0.703299282290893 0
337 0.08914865471961522 0.6675264374435648 0
338 0.1185127340291291 0.6273370455752676 0
339 0.171032753427045 0.6631098904225958 0
340 0.823917864710807 0.6616801266239728 0
341 0.9090910262587188 0.6645255769696277 0
342 0.8551868242653069 0.7024453648684121 0
343 0.1778185120191389 0.3375470217603629 0
344 0.09200628099503513 0.3352863938616951 0
345 0.1458394438289385 0.2968257788613424 0
346 0.6611140820692409 0.1767602420330255 0
347 0.6643405160074266 0.09101497552957394 0
348 0.7021300095906378 0.1453855581510716 0
349 0.8658432408584118 0.2884426811217926 0
350 0.9148633289717345 0.33295979931403 0
351 0.8766671823778491 0.3778146141182211 0
352 0.2880803632938547 0.1331985286888801 0
353 0.3327681883650856 0.0847516238306789 0
354 0.3772183014381147 0.1223792759905027 0
355 0.5563553908575554 0.7638704797248606 0
356 0.5171970747588009 0.672718318106843 0
357 0.765217264348074 0.4449084752439204 0
358 0.4407697864147478 0.2304439267114902 0
359 0.4553595405634582 0.6768566460575712 0
360 0.5149010097555489 0.6158427668509145 0
361 0.3395387257700205 0.4714697297764291 0
362 0.4003697413131819 0.470853439286531 0
363 0.7600765770300133 0.815632920952054 0
364 0.8078726907882594 0.8595541047400691 0
365 0.192365672087574 0.7523682557603668 0
366 0.1424130084495903 0.8072618690151178 0
367 0.8569775692832937 0.8085220095320944 0
368 0.8055730296646022 0.7533474409239096 0
369 0.8157966099858349 0.2403046844043476 0
370 0.8596123516321494 0.1922748277385019 0
371 0.1929193700276893 0.8571795907893396 0
372 0.2478768735068843 0.8068019926436132 0
373 0.2399801673282584 0.1830773193668386 0
374 0.1922221317970808 0.1399255492257584 0
375 0.8085410588135403 0.143190849607693 0
376 0.7530944660922037 0.1950543443355326 0
377 0.1432076880874012 0.1909842787315754 0
378 0.1953316253669234 0.2456993980805894 0
379 0.5814820115392889 0.8479738158995549 0
380 0.1562612698322415 0.5939546749344105 0
381 0.208773644890097 0.5805184365651648 0
382 0.8485128367826622 0.4188594693163133 0
383 0.4177674153816763 0.1501920709577866 0
384 0.3714868903683043 0.7020727937087103 0
385 0.2925552172849451 0.7630971221305949 0
386 0.3491895793934674 0.7756384211499703 0
387 0.707330685114514 0.617687832787607 0
388 0.7482698579990958 0.7095153314191751 0
389 0.7744358100902571 0.6497197505920567 0
390 0.299889488527489 0.3790289307781282 0
391 0.6146498492277448 0.2984004739822408 0
392 0.252834103343678 0.2875392114274058 0
393 0.2288502799837492 0.350233689317693 0
394 0.7094057142727503 0.2531235048321369 0
395 0.6474232249618748 0.2276680879413329 0
396 0.5903337038795553 0.918854978903018 0
397 0.6108068743975447 0.9588522666400132 0
398 0.1069842621241336 0.5956991585132139 0
399 0.04451442166574934 0.611965069762084 0
400 0.919050259625487 0.4097623318668735 0
401 0.958946251093914 0.3892530717878606 0
402 0.4094989826228352 0.08056561660161098 0
403 0.3891217948820149 0.04082728566427007 0
404 0.4812688307180276 0.4490989968337302 0
$EndNodes
$Elements
161
1 8 2 1 1 1 5 14
2 8 2 1 1 5 6 15
3 8 2 1 1 6 7 16
4 8 2 1 1 7 8 17
5 8 2 1 1 8 9 18
6 8 2 1 1 9 10 19
7 8 2 1 1 10 11 20
8 8 2 1 1 11 12 21
9 8 2 1 1 12 13 22
10 8 2 1 1 13 2 23
11 8 2 1 2 2 24 33
12 8 2 1 2 24 25 34
13 8 2 1 2 25 26 35
14 8 2 1 2 26 27 36
15 8 2 1 2 27 28 37
16 8 2 1 2 28 29 38
17 8 2 1 2 29 30 39
18 8 2 1 2 30 31 40
19 8 2 1 2 31 32 41
20 8 2 1 2 32 3 42
21 8 2 2 3 3 43 52
22 8 2 2 3 43 44 53
23 8 2 2 3 44 45 54
24 8 2 2 3 45 46 55
25 8 2 2 3 46 47 56
26 8 2 2 3 47 48 57
27 8 2 2 3 48 49 58
28 8 2 2 3 49 50 59
29 8 2 2 3 50 51 60
30 8 2 2 3 51 4 61
31 8 2 1 4 4 62 71
32 8 2 1 4 62 63 72
33 8 2 1 4 63 64 73
34 8 2 1 4 64 65 74
35 8 2 1 4 65 66 75
36 8 2 1 4 66 67 76
37 8 2 1 4 67 68 77
38 8 2 1 4 68 69 78
39 8 2 1 4 69 70 79
40 8 2 1 4 70 1 80
41 16 2 1 1 24 132 13 2 183 184 23 33
42 16 2 1 1 5 133 70 1 185 186 80 14
43 16 2 1 1 43 130 32 3 187 188 42 52
44 16 2 1 1 62 131 51 4 189 190 61 71
45 16 2 1 1 94 122 82 142 191 192 193 194
46 16 2 1 1 100 125 85 145 195 196 197 198
47 16 2 1 1 98 124 84 144 199 200 201 202
48 16 2 1 1 28 29 158 112 38 203 204 205
49 16 2 1 1 9 10 159 113 19 206 207 208
50 16 2 1 1 47 48 160 110 57 209 210 211
51 16 2 1 1 66 67 161 111 76 212 213 214
52 16 2 1 1 147 104 172 107 215 216 217 218
53 16 2 1 1 182 105 173 109 219 220 221 222
54 16 2 1 1 146 106 151 103 223 224 225 226
55 16 2 1 1 182 108 153 105 227 228 229 219
56 16 2 1 1 103 148 81 146 230 231 232 226
57 16 2 1 1 104 147 81 149 215 233 234 235
58 16 2 1 1 102 150 82 122 236 237 192 238
59 16 2 1 1 143 123 151 83 239 240 241 242
60 16 2 1 1 104 152 84 124 243 244 200 245
61 16 2 1 1 105 153 85 125 229 246 196 247
62 16 2 1 1 102 147 107 150 248 218 249 236
63 16 2 1 1 104 149 109 152 235 250 251 243
64 16 2 1 1 170 86 178 126 252 253 254 255
65 16 2 1 1 172 88 180 127 256 257 258 259
66 16 2 1 1 171 87 179 128 260 261 262 263
67 16 2 1 1 173 89 181 129 264 265 266 267
68 16 2 1 1 45 114 162 44 268 269 270 54
69 16 2 1 1 64 115 163 63 271 272 273 73
70 16 2 1 1 26 116 164 25 274 275 276 35
71 16 2 1 1 7 117 165 6 277 278 279 16
72 16 2 1 1 30 31 166 118 40 280 281 282
73 16 2 1 1 11 12 167 120 21 283 284 285
74 16 2 1 1 49 50 168 119 59 286 287 288
75 16 2 1 1 68 69 169 121 78 289 290 291
76 16 2 1 1 47 110 174 134 211 292 293 294
77 16 2 1 1 66 111 175 135 214 295 296 297
78 16 2 1 1 28 112 176 136 205 298 299 300
79 16 2 1 1 9 113 177 137 208 301 302 303
80 16 2 1 1 25 164 132 24 276 304 183 34
81 16 2 1 1 6 165 133 5 279 305 185 15
82 16 2 1 1 44 162 130 43 270 306 187 53
83 16 2 1 1 63 163 131 62 273 307 189 72
84 16 2 1 1 31 32 130 166 41 188 308 280
85 16 2 1 1 12 13 132 167 22 184 309 283
86 16 2 1 1 50 51 131 168 60 190 310 286
87 16 2 1 1 69 70 133 169 79 186 311 289
88 16 2 1 1 151 123 171 103 240 312 313 225
89 16 2 1 1 174 110 178 86 292 314 253 315
90 16 2 1 1 175 111 179 87 295 316 261 317
91 16 2 1 1 160 96 178 110 318 319 314 210
92 16 2 1 1 161 99 179 111 320 321 316 213
93 16 2 1 1 176 112 180 88 298 322 257 323
94 16 2 1 1 177 113 181 89 301 324 265 325
95 16 2 1 1 158 97 180 112 326 327 322 204
96 16 2 1 1 159 101 181 113 328 329 324 207
97 16 2 1 1 139 96 160 119 330 318 331 332
98 16 2 1 1 142 114 154 94 333 334 335 194
99 16 2 1 1 143 115 155 95 336 337 338 339
100 16 2 1 1 138 97 158 118 340 326 341 342
101 16 2 1 1 141 99 161 121 343 320 344 345
102 16 2 1 1 140 101 159 120 346 328 347 348
103 16 2 1 1 144 116 156 98 349 350 351 202
104 16 2 1 1 145 117 157 100 352 353 354 198
105 16 2 1 1 102 122 86 170 238 355 252 356
106 16 2 1 1 104 124 88 172 245 357 256 216
107 16 2 1 1 105 125 89 173 247 358 264 220
108 16 2 1 1 102 170 106 146 356 359 223 360
109 16 2 1 1 103 171 108 148 313 361 362 230
110 16 2 1 1 142 90 162 114 363 364 269 333
111 16 2 1 1 143 91 163 115 365 366 272 336
112 16 2 1 1 138 118 166 90 342 281 367 368
113 16 2 1 1 144 92 164 116 369 370 275 349
114 16 2 1 1 139 119 168 91 332 287 371 372
115 16 2 1 1 145 93 165 117 373 374 278 352
116 16 2 1 1 140 120 167 92 348 284 375 376
117 16 2 1 1 141 121 169 93 345 290 377 378
118 16 2 1 1 94 174 86 122 379 315 355 191
119 16 2 1 1 143 95 175 123 339 380 381 239
120 16 2 1 1 171 123 175 87 312 381 317 260
121 16 2 1 1 88 124 98 176 357 199 382 323
122 16 2 1 1 100 177 89 125 383 325 358 195
123 16 2 1 1 170 126 151 106 255 384 224 359
124 16 2 1 1 139 83 151 126 385 241 384 386
125 16 2 1 1 172 127 150 107 259 387 249 217
126 16 2 1 1 138 82 150 127 388 237 387 389
127 16 2 1 1 171 128 153 108 263 390 228 361
128 16 2 1 1 173 129 152 109 267 391 251 221
129 16 2 1 1 141 85 153 128 392 246 390 393
130 16 2 1 1 140 84 152 129 394 244 391 395
131 16 2 1 1 90 142 82 138 363 193 388 368
132 16 2 1 1 91 143 83 139 365 242 385 372
133 16 2 1 1 92 144 84 140 369 201 394 376
134 16 2 1 1 93 145 85 141 373 197 392 378
135 16 2 1 1 162 90 166 130 364 367 308 306
136 16 2 1 1 163 91 168 131 366 371 310 307
137 16 2 1 1 164 92 167 132 370 375 309 304
138 16 2 1 1 165 93 169 133 374 377 311 305
139 16 2 1 1 81 147 102 146 233 248 360 232
140 16 2 1 1 47 134 154 46 294 396 397 56
141 16 2 1 1 66 135 155 65 297 398 399 75
142 16 2 1 1 28 136 156 27 300 400 401 37
143 16 2 1 1 9 137 157 8 303 402 403 18
144 16 2 1 1 114 45 46 154 268 55 397 334
145 16 2 1 1 115 64 65 155 271 74 399 337
146 16 2 1 1 116 26 27 156 274 36 401 350
147 16 2 1 1 117 7 8 157 277 17 403 353
148 16 2 1 1 118 158 29 30 341 203 39 282
149 16 2 1 1 120 159 10 11 347 206 20 285
150 16 2 1 1 119 160 48 49 331 209 58 288
151 16 2 1 1 121 161 67 68 344 212 77 291
152 16 2 1 1 139 126 178 96 386 254 319 330
153 16 2 1 1 138 127 180 97 389 258 327 340
154 16 2 1 1 141 128 179 99 393 262 321 343
155 16 2 1 1 140 129 181 101 395 266 329 346
156 16 2 1 1 154 134 174 94 396 293 379 335
157 16 2 1 1 155 135 175 95 398 296 380 338
158 16 2 1 1 156 136 176 98 400 299 382 351
159 16 2 1 1 157 137 177 100 402 302 383 354
160 16 2 1 1 109 149 81 182 250 234 404 222
161 16 2 1 1 108 182 81 148 227 404 231 362
$EndElements
