$MeshFormat
2.2 0 8
$EndMeshFormat
$Nodes
121
1 0 0 0
2 1 0 0
3 1 1 0
4 0 1 0
5 0.09999999999981467 0 0
6 0.1999999999995579 0 0
7 0.2999999999992664 0 0
8 0.3999999999989749 0 0
9 0.4999999999986943 0 0
10 0.5999999999989468 0 0
11 0.69999999999921 0 0
12 0.7999999999994734 0 0
13 0.8999999999997368 0 0
14 1 0.09999999999981467 0
15 1 0.1999999999995579 0
16 1 0.2999999999992664 0
17 1 0.3999999999989749 0
18 1 0.4999999999986943 0
19 1 0.5999999999989468 0
20 1 0.69999999999921 0
21 1 0.7999999999994734 0
22 1 0.8999999999997368 0
23 0.8999999999995836 1 0
24 0.7999999999999998 1 0
25 0.7000000000006934 1 0
26 0.6000000000013869 1 0
27 0.5000000000020587 1 0
28 0.4000000000016644 1 0
29 0.3000000000012483 1 0
30 0.2000000000008322 1 0
31 0.100000000000416 1 0
32 0 0.8999999999995836 0
33 0 0.7999999999999998 0
34 0 0.7000000000006934 0
35 0 0.6000000000013869 0
36 0 0.5000000000020587 0
37 0 0.4000000000016644 0
38 0 0.3000000000012483 0
39 0 0.2000000000008322 0
40 0 0.100000000000416 0
41 0.3999999988989827 0.8999999988987563 0
42 0.9000000000001462 0.4999999999991815 0
43 0.4999786212342917 0.09997862123502414 0
44 0.5999999998879457 0.8999999998874293 0
45 0.09997982640994811 0.499979826411531 0
46 0.09999999718155865 0.7999999971821096 0
47 0.900000000000051 0.6999999999994997 0
48 0.09953749690515025 0.299537496906057 0
49 0.7999999999997147 0.09999999999988456 0
50 0.2995305510765021 0.09953055107702066 0
51 0.09898714674874137 0.1989871467493608 0
52 0.9000000000000492 0.7999999999997215 0
53 0.199999999736063 0.8999999997361001 0
54 0.8000000000001868 0.900000000000028 0
55 0.1990369303928916 0.0990369303933194 0
56 0.9000000000000309 0.1999999999996093 0
57 0.09999999961476522 0.8999999996147414 0
58 0.8999999999999828 0.8999999999998808 0
59 0.6999998202480624 0.09999982024849211 0
60 0.09999980980934429 0.6999998098105069 0
61 0.9000000000001261 0.2999999999993911 0
62 0.8999999999998792 0.09999999999982549 0
63 0.09919172538829332 0.09919172538869807 0
64 0.7999999997563279 0.6999999997559182 0
65 0.2999999991908528 0.8999999991908473 0
66 0.7999999999453465 0.7999999999450755 0
67 0.1992810551962849 0.1992810551967246 0
68 0.6999994586160109 0.1999994586159706 0
69 0.7999998902261611 0.1999998902258995 0
70 0.5999959833616118 0.09999598336223549 0
71 0.499999999197826 0.8999999991973929 0
72 0.09999619966139309 0.5999961996629313 0
73 0.09987790333118321 0.399877903332461 0
74 0.8999999999848639 0.5999999999840568 0
75 0.9000000000001641 0.3999999999992269 0
76 0.6999999999704881 0.8999999999701076 0
77 0.1999999775982742 0.7999999775992163 0
78 0.399873727364183 0.09987372736483079 0
79 0.1999626870163994 0.4999626870177873 0
80 0.4999616677675075 0.1999616677677436 0
81 0.499999978731674 0.7999999787323556 0
82 0.2999999673035563 0.7999999673046901 0
83 0.1996026993094094 0.2996026993099737 0
84 0.6999999994692411 0.7999999994690857 0
85 0.7999999455358997 0.399999945535029 0
86 0.7999999976540637 0.5999999976534126 0
87 0.5999916263215741 0.199991626321697 0
88 0.7999998730517655 0.2999998730511403 0
89 0.1999992074994651 0.699999207501005 0
90 0.2996016545298116 0.199601654530136 0
91 0.4999676454685792 0.2999676454683885 0
92 0.2999991184524159 0.6999991184541348 0
93 0.2997592132573383 0.2997592132576143 0
94 0.3999999006912296 0.7999999006921797 0
95 0.7999999780550822 0.4999999780542431 0
96 0.1999913395891324 0.5999913395907606 0
97 0.1998426757911348 0.3998426757920518 0
98 0.6999999076118252 0.5999999076113965 0
99 0.6999999851907999 0.6999999851906414 0
100 0.5999909895195935 0.2999909895192442 0
101 0.6999989636913097 0.3999989636905661 0
102 0.3998382163813111 0.199838216381603 0
103 0.5999999942666321 0.7999999942667914 0
104 0.6999978702421737 0.2999978702417126 0
105 0.4999997818482081 0.6999997818491979 0
106 0.5999995029450366 0.5999995029450408 0
107 0.4999802836866233 0.3999802836863194 0
108 0.2999646340136068 0.499964634014674 0
109 0.5999998805748269 0.6999998805751061 0
110 0.299884250933102 0.3998842509336322 0
111 0.2999900614656491 0.5999900614671958 0
112 0.6999995175815188 0.499999517580863 0
113 0.5999931383290191 0.399993138328512 0
114 0.399880767650608 0.2998807676506933 0
115 0.3999988783556871 0.6999988783570508 0
116 0.499998143512115 0.599998143512668 0
117 0.3999938182647114 0.5999938182657714 0
118 0.3999762869618471 0.4999762869623487 0
119 0.4999894012833955 0.4999894012834266 0
120 0.5999959499888146 0.4999959499884981 0
121 0.3999336943327372 0.3999336943329199 0
$EndNodes
$Elements
140
1 1 2 1 1 1 5
2 1 2 1 1 5 6
3 1 2 1 1 6 7
4 1 2 1 1 7 8
5 1 2 1 1 8 9
6 1 2 1 1 9 10
7 1 2 1 1 10 11
8 1 2 1 1 11 12
9 1 2 1 1 12 13
10 1 2 1 1 13 2
11 1 2 1 2 2 14
12 1 2 1 2 14 15
13 1 2 1 2 15 16
14 1 2 1 2 16 17
15 1 2 1 2 17 18
16 1 2 1 2 18 19
17 1 2 1 2 19 20
18 1 2 1 2 20 21
19 1 2 1 2 21 22
20 1 2 1 2 22 3
21 1 2 2 3 3 23
22 1 2 2 3 23 24
23 1 2 2 3 24 25
24 1 2 2 3 25 26
25 1 2 2 3 26 27
26 1 2 2 3 27 28
27 1 2 2 3 28 29
28 1 2 2 3 29 30
29 1 2 2 3 30 31
30 1 2 2 3 31 4
31 1 2 1 4 4 32
32 1 2 1 4 32 33
33 1 2 1 4 33 34
34 1 2 1 4 34 35
35 1 2 1 4 35 36
36 1 2 1 4 36 37
37 1 2 1 4 37 38
38 1 2 1 4 38 39
39 1 2 1 4 39 40
40 1 2 1 4 40 1
41 3 2 1 1 117 118 119 116
42 3 2 1 1 105 116 106 109
43 3 2 1 1 118 117 111 108
44 3 2 1 1 119 118 121 107
45 3 2 1 1 116 119 120 106
46 3 2 1 1 63 55 67 51
47 3 2 1 1 104 68 69 88
48 3 2 1 1 107 113 120 119
49 3 2 1 1 108 111 96 79
50 3 2 1 1 65 41 28 29
51 3 2 1 1 110 108 79 97
52 3 2 1 1 87 80 43 70
53 3 2 1 1 116 105 115 117
54 3 2 1 1 28 41 71 27
55 3 2 1 1 97 79 45 73
56 3 2 1 1 94 81 71 41
57 3 2 1 1 79 96 72 45
58 3 2 1 1 52 21 22 58
59 3 2 1 1 53 57 46 77
60 3 2 1 1 66 64 47 52
61 3 2 1 1 36 37 73 45
62 3 2 1 1 52 58 54 66
63 3 2 1 1 84 76 44 103
64 3 2 1 1 70 43 9 10
65 3 2 1 1 49 12 13 62
66 3 2 1 1 69 68 59 49
67 3 2 1 1 53 65 29 30
68 3 2 1 1 48 73 37 38
69 3 2 1 1 18 19 74 42
70 3 2 1 1 73 48 83 97
71 3 2 1 1 95 85 75 42
72 3 2 1 1 95 112 101 85
73 3 2 1 1 51 67 83 48
74 3 2 1 1 84 66 54 76
75 3 2 1 1 57 53 30 31
76 3 2 1 1 32 57 31 4
77 3 2 1 1 57 32 33 46
78 3 2 1 1 112 95 86 98
79 3 2 1 1 121 114 91 107
80 3 2 1 1 103 109 99 84
81 3 2 1 1 70 59 68 87
82 3 2 1 1 88 85 101 104
83 3 2 1 1 47 74 19 20
84 3 2 1 1 74 47 64 86
85 3 2 1 1 105 109 103 81
86 3 2 1 1 59 70 10 11
87 3 2 1 1 13 2 14 62
88 3 2 1 1 113 107 91 100
89 3 2 1 1 23 58 22 3
90 3 2 1 1 91 114 102 80
91 3 2 1 1 80 102 78 43
92 3 2 1 1 109 106 98 99
93 3 2 1 1 58 23 24 54
94 3 2 1 1 49 59 11 12
95 3 2 1 1 52 47 20 21
96 3 2 1 1 93 110 97 83
97 3 2 1 1 51 48 38 39
98 3 2 1 1 80 87 100 91
99 3 2 1 1 99 98 86 64
100 3 2 1 1 108 110 121 118
101 3 2 1 1 104 100 87 68
102 3 2 1 1 63 51 39 40
103 3 2 1 1 82 77 89 92
104 3 2 1 1 85 88 61 75
105 3 2 1 1 42 75 17 18
106 3 2 1 1 41 65 82 94
107 3 2 1 1 66 84 99 64
108 3 2 1 1 120 113 101 112
109 3 2 1 1 114 121 110 93
110 3 2 1 1 112 98 106 120
111 3 2 1 1 25 76 54 24
112 3 2 1 1 8 9 43 78
113 3 2 1 1 44 71 81 103
114 3 2 1 1 42 74 86 95
115 3 2 1 1 45 72 35 36
116 3 2 1 1 61 88 69 56
117 3 2 1 1 111 117 115 92
118 3 2 1 1 100 104 101 113
119 3 2 1 1 71 44 26 27
120 3 2 1 1 60 72 96 89
121 3 2 1 1 96 111 92 89
122 3 2 1 1 34 60 46 33
123 3 2 1 1 34 35 72 60
124 3 2 1 1 90 102 114 93
125 3 2 1 1 94 82 92 115
126 3 2 1 1 76 25 26 44
127 3 2 1 1 65 53 77 82
128 3 2 1 1 102 90 50 78
129 3 2 1 1 81 94 115 105
130 3 2 1 1 83 67 90 93
131 3 2 1 1 75 61 16 17
132 3 2 1 1 62 14 15 56
133 3 2 1 1 78 50 7 8
134 3 2 1 1 63 5 6 55
135 3 2 1 1 89 77 46 60
136 3 2 1 1 67 55 50 90
137 3 2 1 1 40 1 5 63
138 3 2 1 1 49 62 56 69
139 3 2 1 1 7 50 55 6
140 3 2 1 1 16 61 56 15
$EndElements
