# vtk DataFile Version 3.0 
Unstructured Grid 
ASCII 
DATASET UNSTRUCTURED_GRID
POINTS 341 float 
0 0 0  
1 0 0  
1 1 0  
0 1 0  
0.1 0 0  
0.2 0 0  
0.3 0 0  
0.4 0 0  
0.5 0 0  
0.6 0 0  
0.7 0 0  
0.8 0 0  
0.9 0 0  
0.05 0 0  
0.15 0 0  
0.25 0 0  
0.35 0 0  
0.45 0 0  
0.55 0 0  
0.65 0 0  
0.75 0 0  
0.85 0 0  
0.95 0 0  
1 0.1 0  
1 0.2 0  
1 0.3 0  
1 0.4 0  
1 0.5 0  
1 0.6 0  
1 0.7 0  
1 0.8 0  
1 0.9 0  
1 0.05 0  
1 0.15 0  
1 0.25 0  
1 0.35 0  
1 0.45 0  
1 0.55 0  
1 0.65 0  
1 0.75 0  
1 0.85 0  
1 0.95 0  
0.9 1 0  
0.8 1 0  
0.7 1 0  
0.6 1 0  
0.5 1 0  
0.4 1 0  
0.3 1 0  
0.2 1 0  
0.1 1 0  
0.95 1 0  
0.85 1 0  
0.75 1 0  
0.65 1 0  
0.55 1 0  
0.45 1 0  
0.35 1 0  
0.25 1 0  
0.15 1 0  
0.05 1 0  
0 0.9 0  
0 0.8 0  
0 0.7 0  
0 0.6 0  
0 0.5 0  
0 0.4 0  
0 0.3 0  
0 0.2 0  
0 0.1 0  
0 0.95 0  
0 0.85 0  
0 0.75 0  
0 0.65 0  
0 0.55 0  
0 0.45 0  
0 0.35 0  
0 0.25 0  
0 0.15 0  
0 0.05 0  
0.4 0.9 0  
0.9 0.5 0  
0.49997863 0.09997862 0  
0.6 0.9 0  
0.099979825 0.49997982 0  
0.099999994 0.8 0  
0.9 0.7 0  
0.0995375 0.2995375 0  
0.8 0.1 0  
0.29953057 0.09953055 0  
0.09898715 0.19898714 0  
0.9 0.8 0  
0.2 0.9 0  
0.8 0.9 0  
0.19903693 0.09903693 0  
0.9 0.2 0  
0.1 0.9 0  
0.9 0.9 0  
0.6999998 0.09999982 0  
0.09999981 0.6999998 0  
0.9 0.3 0  
0.9 0.1 0  
0.099191725 0.099191725 0  
0.8 0.7 0  
0.3 0.9 0  
0.8 0.8 0  
0.19928105 0.19928105 0  
0.69999945 0.19999945 0  
0.7999999 0.19999988 0  
0.599996 0.099995986 0  
0.5 0.9 0  
0.0999962 0.5999962 0  
0.0998779 0.3998779 0  
0.9 0.6 0  
0.9 0.4 0  
0.7 0.9 0  
0.19999997 0.79999995 0  
0.39987373 0.09987373 0  
0.19996269 0.4999627 0  
0.49996167 0.19996166 0  
0.49999997 0.79999995 0  
0.29999998 0.79999995 0  
0.1996027 0.2996027 0  
0.7 0.8 0  
0.79999995 0.39999995 0  
0.8 0.6 0  
0.5999916 0.19999163 0  
0.7999999 0.29999986 0  
0.19999921 0.6999992 0  
0.29960164 0.19960165 0  
0.49996763 0.29996765 0  
0.29999912 0.6999991 0  
0.2997592 0.2997592 0  
0.3999999 0.7999999 0  
0.79999995 0.49999997 0  
0.19999135 0.5999913 0  
0.19984268 0.39984268 0  
0.6999999 0.5999999 0  
0.7 0.7 0  
0.59999096 0.29999098 0  
0.699999 0.39999896 0  
0.3998382 0.19983822 0  
0.6 0.8 0  
0.69999784 0.29999787 0  
0.4999998 0.6999998 0  
0.5999995 0.5999995 0  
0.49998027 0.39998028 0  
0.29996464 0.49996462 0  
0.5999999 0.69999987 0  
0.29988426 0.39988425 0  
0.29999006 0.59999007 0  
0.6999995 0.49999952 0  
0.5999931 0.39999315 0  
0.39988077 0.29988077 0  
0.39999887 0.69999886 0  
0.49999815 0.5999981 0  
0.3999938 0.5999938 0  
0.39997628 0.49997628 0  
0.4999894 0.4999894 0  
0.599996 0.49999595 0  
0.3999337 0.3999337 0  
0.39998505 0.54998505 0  
0.44998285 0.49998283 0  
0.49999377 0.54999375 0  
0.449996 0.599996 0  
0.49999896 0.64999896 0  
0.5499988 0.59999883 0  
0.59999967 0.6499997 0  
0.54999983 0.6999998 0  
0.34999195 0.5999919 0  
0.29997736 0.54997736 0  
0.34997046 0.49997047 0  
0.399955 0.449955 0  
0.44995698 0.399957 0  
0.49998483 0.44998485 0  
0.5499927 0.49999267 0  
0.5999977 0.54999775 0  
0.14911433 0.09911433 0  
0.199159 0.149159 0  
0.1491341 0.1991341 0  
0.099089436 0.14908944 0  
0.6999987 0.24999866 0  
0.7499997 0.19999968 0  
0.7999999 0.24999988 0  
0.74999887 0.29999888 0  
0.5499867 0.3999867 0  
0.59999454 0.44999453 0  
0.2499907 0.5999907 0  
0.19997701 0.549977 0  
0.24996366 0.49996367 0  
0.35 0.9 0  
0.4 0.95 0  
0.3 0.95 0  
0.29992443 0.44992444 0  
0.19990268 0.44990268 0  
0.24986346 0.39986345 0  
0.54997665 0.19997665 0  
0.49997014 0.14997014 0  
0.5499873 0.099987306 0  
0.5999938 0.1499938 0  
0.44999933 0.69999933 0  
0.39999634 0.64999634 0  
0.45 0.9 0  
0.5 0.95 0  
0.14997126 0.49997127 0  
0.09992886 0.44992888 0  
0.1498603 0.3998603 0  
0.44999993 0.79999995 0  
0.5 0.84999996 0  
0.39999995 0.84999996 0  
0.14999376 0.59999377 0  
0.09998801 0.54998803 0  
0.95 0.8 0  
0.95 0.9 0  
0.9 0.85 0  
0.15 0.9 0  
0.1 0.85 0  
0.14999999 0.8 0  
0.19999999 0.84999996 0  
0.8 0.75 0  
0.85 0.7 0  
0.9 0.75 0  
0.85 0.8 0  
0.04993895 0.39993894 0  
0.049989913 0.49998993 0  
0.85 0.9 0  
0.8 0.85 0  
0.7 0.85 0  
0.65 0.9 0  
0.6 0.85 0  
0.65 0.8 0  
0.4999893 0.04998931 0  
0.599998 0.049997993 0  
0.8 0.05 0  
0.9 0.05 0  
0.85 0.1 0  
0.69999963 0.14999963 0  
0.7499999 0.09999991 0  
0.79999995 0.14999995 0  
0.25 0.9 0  
0.2 0.95 0  
0.0997077 0.3497077 0  
0.04976875 0.29976875 0  
0.95 0.6 0  
0.9 0.55 0  
0.95 0.5 0  
0.1495701 0.29957008 0  
0.19972269 0.34972268 0  
0.79999995 0.44999996 0  
0.84999996 0.39999998 0  
0.9 0.45 0  
0.84999996 0.5 0  
0.74999976 0.49999976 0  
0.6999992 0.44999924 0  
0.74999946 0.39999944 0  
0.19944188 0.24944188 0  
0.09926232 0.24926232 0  
0.75 0.8 0  
0.75 0.9 0  
0.1 0.95 0  
0.05 0.9 0  
0.049999997 0.8 0  
0.8 0.55 0  
0.74999994 0.59999996 0  
0.6999997 0.5499997 0  
0.39990723 0.34990722 0  
0.4499242 0.2999242 0  
0.49997395 0.34997398 0  
0.59999996 0.74999994 0  
0.6499999 0.6999999 0  
0.7 0.75 0  
0.6499979 0.0999979 0  
0.64999557 0.19999555 0  
0.7999999 0.3499999 0  
0.69999844 0.3499984 0  
0.9 0.65 0  
0.95 0.7 0  
0.8 0.65 0  
0.85 0.6 0  
0.55 0.8 0  
0.49999988 0.7499999 0  
0.6999999 0.04999991 0  
0.95 0.1 0  
0.5499793 0.29997933 0  
0.59999204 0.34999207 0  
0.9 0.95 0  
0.3998595 0.2498595 0  
0.44989994 0.19989994 0  
0.49996465 0.24996465 0  
0.39985597 0.14985597 0  
0.44992617 0.09992617 0  
0.6499997 0.5999997 0  
0.6999999 0.65 0  
0.8 0.95 0  
0.29982173 0.34982175 0  
0.24968095 0.29968095 0  
0.049493574 0.19949357 0  
0.5999913 0.24999131 0  
0.75 0.7 0  
0.34990898 0.39990896 0  
0.64999443 0.29999444 0  
0.049595863 0.09959586 0  
0.24999997 0.79999995 0  
0.19999959 0.7499996 0  
0.24999917 0.69999915 0  
0.29999954 0.7499995 0  
0.84999996 0.29999992 0  
0.9 0.35 0  
0.95 0.4 0  
0.29999998 0.84999996 0  
0.34999993 0.79999995 0  
0.64999604 0.39999604 0  
0.6499977 0.49999774 0  
0.34982 0.29981998 0  
0.7 0.95 0  
0.39993685 0.049936865 0  
0.55 0.9 0  
0.0499981 0.5999981 0  
0.84999996 0.19999994 0  
0.9 0.25 0  
0.349999 0.699999 0  
0.2999946 0.6499946 0  
0.6 0.95 0  
0.099998005 0.649998 0  
0.19999528 0.64999527 0  
0.14999951 0.6999995 0  
0.049999904 0.6999999 0  
0.099999905 0.7499999 0  
0.34971994 0.19971994 0  
0.29968044 0.24968043 0  
0.39999938 0.7499994 0  
0.2995661 0.1495661 0  
0.34970215 0.09970214 0  
0.24944136 0.19944136 0  
0.95 0.3 0  
0.95 0.2 0  
0.9 0.15 0  
0.2997653 0.049765274 0  
0.09959586 0.049595863 0  
0.19951847 0.049518466 0  
0.24928375 0.09928374 0  
CELLS 100 900 
8 156 157 158 155 161 162 163 164 
8 144 155 145 148 165 166 167 168 
8 157 156 150 147 161 169 170 171 
8 158 157 160 146 162 172 173 174 
8 155 158 159 145 163 175 176 166 
8 102 94 106 90 177 178 179 180 
8 143 107 108 127 181 182 183 184 
8 146 152 159 158 185 186 175 174 
8 147 150 135 118 170 187 188 189 
8 104 80 47 48 190 191 57 192 
8 149 147 118 136 193 189 194 195 
8 126 119 82 109 196 197 198 199 
8 155 144 154 156 165 200 201 164 
8 47 80 110 46 191 202 203 56 
8 136 118 84 112 194 204 205 206 
8 133 120 110 80 207 208 202 209 
8 118 135 111 84 188 210 211 204 
8 91 30 31 97 212 40 213 214 
8 92 96 85 116 215 216 217 218 
8 105 103 86 91 219 220 221 222 
8 65 66 112 84 75 223 205 224 
8 91 97 93 105 214 225 226 222 
8 123 115 83 142 227 228 229 230 
8 109 82 8 9 198 231 18 232 
8 88 11 12 101 233 21 234 235 
8 108 107 98 88 182 236 237 238 
8 92 104 48 49 239 192 58 240 
8 87 112 66 67 241 223 76 242 
8 27 28 113 81 37 243 244 245 
8 112 87 122 136 241 246 247 206 
8 134 124 114 81 248 249 250 251 
8 134 151 140 124 252 253 254 248 
8 90 106 122 87 179 255 246 256 
8 123 105 93 115 257 226 258 227 
8 96 92 49 50 215 240 59 259 
8 61 96 50 3 260 259 60 70 
8 96 61 62 85 260 71 261 216 
8 151 134 125 137 252 262 263 264 
8 160 153 130 146 265 266 267 173 
8 142 148 138 123 268 269 270 230 
8 109 98 107 126 271 236 272 199 
8 127 124 140 143 273 254 274 184 
8 86 113 28 29 275 243 38 276 
8 113 86 103 125 275 220 277 278 
8 144 148 142 120 168 268 279 280 
8 98 109 9 10 271 232 19 281 
8 12 1 23 101 22 32 282 234 
8 152 146 130 139 185 267 283 284 
8 42 97 31 2 285 213 41 51 
8 130 153 141 119 266 286 287 288 
8 119 141 117 82 287 289 290 197 
8 148 145 137 138 167 291 292 269 
8 97 42 43 93 285 52 293 225 
8 88 98 10 11 237 281 20 233 
8 91 86 29 30 221 276 39 212 
8 132 149 136 122 294 195 247 295 
8 90 87 67 68 256 242 77 296 
8 119 126 139 130 196 297 283 288 
8 138 137 125 103 292 263 277 298 
8 147 149 160 157 193 299 172 171 
8 143 139 126 107 300 297 272 181 
8 102 90 68 69 180 296 78 301 
8 121 116 128 131 302 303 304 305 
8 124 127 100 114 273 306 307 249 
8 81 114 26 27 250 308 36 245 
8 80 104 121 133 190 309 310 209 
8 105 123 138 103 257 270 298 219 
8 159 152 140 151 186 311 253 312 
8 153 160 149 132 265 299 294 313 
8 151 137 145 159 264 291 176 312 
8 44 115 93 43 314 258 293 53 
8 7 8 82 117 17 231 290 315 
8 83 110 120 142 316 208 279 229 
8 81 113 125 134 244 278 262 251 
8 84 111 64 65 211 317 74 224 
8 100 127 108 95 306 183 318 319 
8 150 156 154 131 169 201 320 321 
8 139 143 140 152 300 274 311 284 
8 110 83 45 46 316 322 55 203 
8 99 111 135 128 323 210 324 325 
8 135 150 131 128 187 321 304 324 
8 63 99 85 62 326 327 261 72 
8 63 64 111 99 73 317 323 326 
8 129 141 153 132 328 286 313 329 
8 133 121 131 154 310 305 320 330 
8 115 44 45 83 314 54 322 228 
8 104 92 116 121 239 218 302 309 
8 141 129 89 117 328 331 332 289 
8 120 133 154 144 207 330 200 280 
8 122 106 129 132 255 333 329 295 
8 114 100 25 26 307 334 35 308 
8 101 23 24 95 282 33 335 336 
8 117 89 6 7 332 337 16 315 
8 102 4 5 94 338 14 339 177 
8 128 116 85 99 303 217 327 325 
8 106 94 89 129 178 340 331 333 
8 69 0 4 102 79 13 338 301 
8 88 101 95 108 235 336 318 238 
8 6 89 94 5 337 340 339 15 
8 25 100 95 24 334 319 335 34 
CELL_TYPES 100 
23  
23  
23  
23  
23  
23  
23  
23  
23  
23  
23  
23  
23  
23  
23  
23  
23  
23  
23  
23  
23  
23  
23  
23  
23  
23  
23  
23  
23  
23  
23  
23  
23  
23  
23  
23  
23  
23  
23  
23  
23  
23  
23  
23  
23  
23  
23  
23  
23  
23  
23  
23  
23  
23  
23  
23  
23  
23  
23  
23  
23  
23  
23  
23  
23  
23  
23  
23  
23  
23  
23  
23  
23  
23  
23  
23  
23  
23  
23  
23  
23  
23  
23  
23  
23  
23  
23  
23  
23  
23  
23  
23  
23  
23  
23  
23  
23  
23  
23  
23  
POINT_DATA 341 
SCALARS |V| float 
LOOKUP_TABLE default 
6.548447451565642e-18 
8.996207648028238e-18 
0.5000000000000022 
0.5000000000000023 
5.008883621723524e-18 
8.97075775045893e-18 
1.0068871260913913e-17 
1.0921470711388952e-17 
1.153763893672019e-17 
1.2537090659527928e-17 
1.2762613216672159e-17 
1.2248833439029146e-17 
8.432432919498288e-18 
1.991219660453246e-17 
2.691784095776875e-17 
3.738723042949212e-17 
4.1398325889685006e-17 
4.521144204224551e-17 
4.841919387215097e-17 
5.008462947664258e-17 
4.935368001049662e-17 
4.061014921841234e-17 
3.3333563932829506e-17 
4.361448203856634e-18 
6.211448557929692e-18 
8.622565803484984e-18 
2.3477899163212168e-17 
2.7449912600881343e-17 
9.162710916045283e-17 
7.048772570794955e-17 
3.6382087362187815e-16 
2.279858309029121e-16 
3.077353682964669e-17 
2.1568393754178536e-17 
1.2155462537948034e-17 
7.853151418905833e-17 
3.4482891406193934e-17 
2.897772271098109e-16 
1.4187493730570681e-16 
1.1062525985435012e-15 
1.3341994457258968e-15 
7.519377058819655e-15 
0.9999999999999997 
0.9999999999999996 
1.0 
1.0 
0.9999999999999999 
0.9999999999999999 
0.9999999999999998 
0.9999999999999998 
0.9999999999999999 
0.9999999999999926 
1.000000000000001 
0.9999999999999988 
1.0000000000000002 
0.9999999999999996 
0.9999999999999997 
1.0 
0.9999999999999987 
1.000000000000001 
0.9999999999999926 
2.3006710295395784e-16 
3.6091824749989885e-16 
7.292332722661772e-17 
8.885273491621261e-17 
2.902119714303884e-17 
2.1547605293492692e-17 
1.0236732975784173e-17 
3.856232125414924e-18 
9.265773598955162e-19 
7.512043013982795e-15 
1.3282175266524973e-15 
1.1009441342747922e-15 
1.3164135856535986e-16 
2.8547941017256654e-16 
2.871219713306181e-17 
7.669182607287056e-17 
1.1391309596991725e-17 
1.269808388798629e-17 
1.821551134300566e-17 
0.44634341270063677 
0.13148499072962996 
0.05631696791711813 
0.446343396056692 
0.13145297166887268 
0.4369831693899446 
0.24787796176180196 
0.04842342363151593 
0.0215417870874548 
0.03795959991064465 
0.02349284955121871 
0.4369831888016557 
0.30523158238588943 
0.3052315602054239 
0.021141803796501418 
0.02396626019972603 
0.24415713053017593 
0.24415728029802086 
0.038203779419613906 
0.24787732620815084 
0.04878248595166236 
0.007033856897213421 
0.006844507654709651 
0.3137806988778317 
0.3904231354692429 
0.2520078352019082 
0.049902915734508745 
0.07517260243317611 
0.0503326855413457 
0.05138713658066096 
0.4801291014715423 
0.20603152403584143 
0.08816691743298335 
0.2060377863291726 
0.08829962689068054 
0.39042314689301333 
0.25200802073294487 
0.051320485163502426 
0.20091651080135245 
0.09926228160607813 
0.10515181729532275 
0.18103662834751938 
0.08916905975308312 
0.18103659284044313 
0.13939721449829393 
0.2628269134717692 
0.09284188968482782 
0.08947922332957867 
0.3137807262770943 
0.07492998024682976 
0.13778029692302243 
0.24054505799286 
0.11652614084710676 
0.11288452196905725 
0.20095319451132865 
0.26281990756449136 
0.13924800220286604 
0.24849626992738527 
0.24054383889160194 
0.13255595643014567 
0.16420742238608593 
0.09275893637608672 
0.11288470876846778 
0.11668461532444481 
0.1002703804060453 
0.20562388325861447 
0.17244555412904003 
0.21317195716544188 
0.14955284053921328 
0.16413340618426117 
0.24849793560688868 
0.2131868134922702 
0.17150375178331392 
0.13249845926055112 
0.1495548058534325 
0.18300305397108707 
0.20562774027444883 
0.2021826345278404 
0.19466813463368723 
0.20218338851868362 
0.1714796744584065 
0.20923795987894758 
0.19689435843139777 
0.1950891425100815 
0.18930309029207815 
0.15370985209586194 
0.18930082349567848 
0.1872944790827793 
0.11478173296072855 
0.22768185718152653 
0.23452799730336657 
0.2088796076697858 
0.18882221580849884 
0.17235359694430397 
0.1861989932679063 
0.19689364228006526 
0.2092342042032453 
0.013274328676103111 
0.03435507744934346 
0.0363803624847039 
0.01419910340553758 
0.09513137666363863 
0.06334798631159645 
0.06862879566167189 
0.10446156995118693 
0.1723635867440033 
0.18883276000307417 
0.2635370096250177 
0.2301441401218288 
0.21154053616331409 
0.4411009394227085 
0.7359796531067533 
0.6047075246660284 
0.1890050196744441 
0.16995059764476073 
0.1548336745116313 
0.09765408864258456 
0.0787243650276767 
0.05517342403563231 
0.07268079811775764 
0.11478277138681281 
0.18729854720632969 
0.4659279682799729 
0.702661168675548 
0.17562915410489105 
0.10449630239616903 
0.11690073286596256 
0.10855793479827579 
0.2701746183462577 
0.24747648864094363 
0.24438548072716362 
0.17351542353266558 
0.18120688479386526 
0.5495305172088333 
0.25274958241883994 
0.24590827976577456 
0.2527496201924566 
0.34532738529660845 
0.2465858033551869 
0.2973436582347928 
0.3104562851212875 
0.36020809959555794 
0.34532719717575094 
0.044136397379860956 
0.08416010678849661 
0.24590830702138214 
0.2465857955268283 
0.21187917952177845 
0.44110094100823827 
0.2474767109932104 
0.1337502384585815 
0.03094554568503869 
0.027847741243485005 
0.009614781855432733 
0.0023591829415995167 
0.01356286369439099 
0.056377265961556976 
0.0299225608183619 
0.03478356361068378 
0.3032284763853552 
0.6693216121158525 
0.0682514236793382 
0.02678414076181952 
0.10057826678755477 
0.17353514329598074 
0.08417999215274372 
0.07061504770881842 
0.11227932822591218 
0.1700479146558827 
0.11704749389477749 
0.10459239491176878 
0.17566757908489022 
0.21156502020459297 
0.189046440971506 
0.154941475596167 
0.06824277613344512 
0.03373676107992611 
0.22205437047937707 
0.3032284724405274 
0.018739764034409325 
0.5495304890177802 
0.18120669238222709 
0.2301643926932536 
0.26353945291211417 
0.23453236438471672 
0.15236022258324167 
0.13649218648208983 
0.15592620907887839 
0.10013314213656296 
0.1941900727819627 
0.2108666920473394 
0.04562728972950752 
0.08519793290327277 
0.11251674430681807 
0.13985922069698817 
0.2090760720266671 
0.21046307175848722 
0.2977396113347518 
0.24439329713379035 
0.10855808165820299 
0.015861056285627357 
0.019925142983628744 
0.0019928863603637615 
0.13651803586862024 
0.15240086322895363 
0.018739890992485315 
0.11263579222894592 
0.09761547925855499 
0.11887445474175284 
0.0726066849391642 
0.05514031715768992 
0.22767791582593447 
0.25230296991152734 
0.6693215892571189 
0.13974122807155548 
0.10422887198819178 
0.010237136487983795 
0.11270623118175592 
0.2823366017214637 
0.16921787559862617 
0.12601151116960393 
0.001938486113984393 
0.22205444136751143 
0.2973443694586601 
0.28233749940777786 
0.21086742591323374 
0.0709588861807369 
0.06852479240644992 
0.04419975106048175 
0.21187911933706846 
0.1337502416404627 
0.16926194195717215 
0.20888472174292733 
0.1259084861847748 
0.6047075110699988 
0.027811937007825836 
0.4659279608865961 
0.10057444003805817 
0.036860059346604565 
0.03418877005115775 
0.19419174125879293 
0.2523069886650837 
0.735979643379533 
0.20907136885466307 
0.2977369004993438 
0.3104554631752262 
0.21046233730396954 
0.3602080795305894 
0.08503858446790498 
0.0949279146098941 
0.1001343435790007 
0.05613174007011284 
0.04546672017843225 
0.06300441008823315 
0.026946211096867137 
0.010410822759713695 
0.014516796609724155 
0.01981089758670028 
0.002305327644296516 
0.009470256438744893 
0.029577820891946698 
VECTORS Velocity float 
4.6256858250773695e-18 4.6352124734034404e-18 0.0 
6.359687994048524e-18 -6.362870473677491e-18 0.0 
0.5000000000000022 2.0435318211572554e-15 0.0 
0.5000000000000023 -2.0418128099318458e-15 0.0 
-5.252267076887673e-19 4.981270123322022e-18 0.0 
-3.2260179350988946e-18 8.370621416587853e-18 0.0 
-6.98800723912165e-18 7.24913258913379e-18 0.0 
-1.0237595371965945e-17 3.80396681105766e-18 0.0 
-1.1409044280256412e-17 -1.717795344408139e-18 0.0 
-1.023485266078467e-17 -7.240610003117928e-18 0.0 
-6.984372400179268e-18 -1.0681893010791157e-17 0.0 
-3.230435556635385e-18 -1.1815168502036032e-17 0.0 
-5.277075936017149e-19 -8.415904564424047e-18 0.0 
-5.850425116610223e-18 1.903334178678275e-17 0.0 
-1.8434663087883557e-18 2.68546419413124e-17 0.0 
-2.1186140784655387e-17 3.0805071625313637e-17 0.0 
-3.505606466240015e-17 2.202030237880905e-17 0.0 
-4.5031495423777376e-17 4.029753272551826e-18 0.0 
-4.5037206552857314e-17 -1.777831153805694e-17 0.0 
-3.505869593331795e-17 -3.5768113582739166e-17 0.0 
-2.1207925580442684e-17 -4.456466787885778e-17 0.0 
-1.7880657086664722e-18 -4.057076583653811e-17 0.0 
-5.9151553460142035e-18 -3.280453355401585e-17 0.0 
4.360967828477683e-18 -6.47304712395847e-20 0.0 
5.162534325705897e-18 -3.4540313437656015e-18 0.0 
-2.7550537345931162e-18 -8.170576476291815e-18 0.0 
1.434274761118151e-17 -1.858755874449105e-17 0.0 
-1.1237151449902894e-17 -2.5044443078015722e-17 0.0 
7.44915794463857e-17 -5.335289799705678e-17 0.0 
-4.91299486843342e-17 -5.054470909752889e-17 0.0 
3.0771804544726733e-16 -1.941010885829859e-16 0.0 
-1.3698329635595872e-16 -1.8224465866506707e-16 0.0 
2.919867663128863e-17 9.718428473115414e-18 0.0 
1.786496770608978e-17 -1.2084640581980785e-17 0.0 
7.631536659050644e-18 -9.461232358050625e-18 0.0 
1.6690150255606988e-17 -7.67374589445828e-17 0.0 
2.023720628568619e-17 -2.7919979969225387e-17 0.0 
9.630830806194159e-17 -2.733048685071254e-16 0.0 
1.0857387314424547e-16 9.132476064001224e-17 0.0 
4.327544583682866e-16 -1.0180954722159507e-15 0.0 
5.859716670934284e-16 1.1986347927283932e-15 0.0 
4.015709954408367e-15 -6.357287543816851e-15 0.0 
0.9999999999999997 -3.4492200433613955e-16 0.0 
0.9999999999999996 3.0800978676936343e-16 0.0 
1.0 -8.989739943980973e-17 0.0 
1.0 5.891351574392391e-17 0.0 
0.9999999999999999 1.7183962795068439e-18 0.0 
0.9999999999999999 -5.547670676326668e-17 0.0 
0.9999999999999998 9.33341875602623e-17 0.0 
0.9999999999999998 -3.045729562608803e-16 0.0 
0.9999999999999999 3.483586756618461e-16 0.0 
0.9999999999999926 2.809246550488599e-15 0.0 
1.000000000000001 2.293292218904959e-16 0.0 
0.9999999999999988 3.007962293325772e-16 0.0 
1.0000000000000002 1.6896514321325146e-17 0.0 
0.9999999999999996 6.767549799240977e-17 0.0 
0.9999999999999997 -5.3928278856977893e-17 0.0 
1.0 -3.1493298292564576e-18 0.0 
0.9999999999999987 -2.8704891704242296e-16 0.0 
1.000000000000001 -2.1558226537158118e-16 0.0 
0.9999999999999926 -2.7954992349415867e-15 0.0 
-1.4041991919864961e-16 1.822446656390023e-16 0.0 
3.042807347579511e-16 1.9410104542108902e-16 0.0 
-5.2564958035224996e-17 5.054440464141803e-17 0.0 
7.105061716432784e-17 5.3353709361757316e-17 0.0 
-1.466475933923852e-17 2.5043456573271636e-17 0.0 
1.0889867808831223e-17 1.859328031817774e-17 0.0 
-6.171362495771064e-18 8.167312101499332e-18 0.0 
1.7160806410762772e-18 3.4533452532877937e-18 0.0 
9.237931775595892e-19 7.177582437912162e-20 0.0 
4.001962899081858e-15 6.357285835818621e-15 0.0 
5.722242748414109e-16 -1.1986330453433605e-15 0.0 
4.190081586355358e-16 1.018091425065023e-15 0.0 
9.482261453892837e-17 -9.131330164294496e-17 0.0 
8.25718354410027e-17 2.732771223947963e-16 0.0 
6.464478716470059e-18 2.79750027548186e-17 0.0 
2.9846495942822853e-18 7.663372660383142e-17 0.0 
-6.1669753716880506e-18 9.577596206747745e-18 0.0 
4.152599663206361e-18 1.1999885435431265e-17 0.0 
1.5436037779521515e-17 -9.671276604272693e-18 0.0 
0.4440749453805896 0.044943130136621885 0.0 
-0.02373643028515391 -0.12932472565015904 0.0 
-0.0563169678995348 1.4072948057564057e-6 0.0 
0.4440749276654449 -0.04494313988086361 0.0 
-0.02372225868160243 0.12929477253013974 0.0 
-0.17034128699826273 0.40241537778004516 0.0 
-0.014277816131262737 -0.2474664177089635 0.0 
-0.015506784753250612 0.045873386432806654 0.0 
-0.019476360446797826 -0.00920434542309466 0.0 
-0.036783284181663385 0.009376632134578249 0.0 
-0.011835227911351187 0.02029387494596759 0.0 
-0.17034149365577542 -0.4024153113816408 0.0 
0.14997590677190664 0.26584496661351026 0.0 
0.14997587184516709 -0.2658449608507172 0.0 
-0.01912228741190486 0.009017427122315253 0.0 
-0.01209532664879641 -0.020690207858305516 0.0 
0.2431206644561772 0.022473248610654178 0.0 
0.24312081921573733 -0.02247320151636364 0.0 
-0.03701784214353576 -0.009445005292681549 0.0 
-0.014278049770149539 0.24746576761819636 0.0 
-0.015687232456994698 -0.046191359294399936 0.0 
-0.004588772726130598 -0.005330882452127113 0.0 
-0.004453248634438531 0.0051976784851749305 0.0 
-0.11629703973088838 -0.2914332265512851 0.0 
0.3894026160638956 0.028210411415453166 0.0 
-0.02122639409337998 -0.2511123039537184 0.0 
-0.037351049062918515 0.033093808071978266 0.0 
-0.06795270003808392 -0.03214577288090216 0.0 
-0.03769478036744158 -0.0333539018235398 0.0 
-0.051074983821065525 -0.005655425150897027 0.0 
0.4801291014715423 3.3342712027303895e-9 0.0 
-0.05782994867002437 0.19774904786965183 0.0 
-0.027003219041032204 0.08392992011825426 0.0 
-0.05783243191729579 -0.19775484624645015 0.0 
-0.027057230601404674 -0.08405195049025217 0.0 
0.3894026287281864 -0.028210394705173586 0.0 
-0.02122660249182254 0.2511124725305187 0.0 
-0.05100848015273415 0.005650411482839023 0.0 
-0.09428167465945553 0.1774215605161857 0.0 
-0.09926228129080765 7.911316874637218e-6 0.0 
0.10515181729532008 2.3667147721033534e-8 0.0 
0.02283778701037908 0.17959035689008032 0.0 
-0.05572643631035424 0.06961095828529398 0.0 
0.022837950224161536 -0.17959030034173645 0.0 
-0.07354275768291028 -0.118418943595508 0.0 
-0.10548314574415942 -0.24073074670472247 0.0 
-0.09082581121335236 -0.019242881740690897 0.0 
-0.05596738999239321 -0.06981534691673442 0.0 
-0.11629691384927189 0.2914333062848442 0.0 
-0.06772268980426342 0.032064610171742516 0.0 
-0.1377802963114162 1.2982086890010891e-5 0.0 
-0.11772630484803798 0.20976759061307637 0.0 
-0.0967203287263866 0.06498861063124428 0.0 
0.08411187192169593 0.07528684016487071 0.0 
-0.0943118808149269 -0.1774470499091459 0.0 
-0.10547685665197971 0.24072585345788164 0.0 
-0.07342769573568855 0.11831474809353451 0.0 
-0.15561027609124067 -0.19374167889907368 0.0 
-0.1177255806478172 -0.2097665990806049 0.0 
-0.1269222696723059 -0.038233742248714384 0.0 
-0.12505767693179914 -0.10641736233859674 0.0 
-0.09074019587113014 0.019246743384059618 0.0 
0.08411225757687886 -0.07528668938838107 0.0 
-0.09687899164000636 -0.06503660840041738 0.0 
-0.10027038040577146 2.3434331926827602e-7 0.0 
-0.17743371709083833 -0.10391562637871485 0.0 
-0.17244555367164358 1.2559935185667539e-5 0.0 
-0.14865391150965376 0.1527884089668618 0.0 
-0.10628148281845126 -0.10521548613801394 0.0 
-0.12497335354692313 0.1064022364844058 0.0 
-0.15560765657968936 0.1937459192206712 0.0 
-0.1486768001189211 -0.15278686642963257 0.0 
-0.16017717582237026 -0.06129281541357059 0.0 
-0.12685605153541982 0.03825420101456615 0.0 
-0.10628283908522168 0.10521690961933239 0.0 
-0.18300305396043284 1.974716581997847e-6 0.0 
-0.1774346459999389 0.10392167227894547 0.0 
-0.1832615522356702 0.08539918721387815 0.0 
-0.19466813441025335 9.32689197423453e-6 0.0 
-0.18327057269214536 -0.08538161264575665 0.0 
-0.16014134789262935 0.0613190626762423 0.0 
-0.1859411496637868 0.09595005323611502 0.0 
-0.19197211948480775 0.04375035682851551 0.0 
-0.1950891424159931 6.058980668033975e-6 0.0 
-0.1818050980544611 0.05275003616622906 0.0 
-0.15370985209199087 1.0908917273875993e-6 0.0 
-0.1818042783789646 -0.052744726174717864 0.0 
-0.1531114713007378 -0.10787075252825946 0.0 
-0.10226548802475437 -0.05212116825750187 0.0 
-0.1695469290393925 0.1519633736889921 0.0 
-0.1553345440296236 0.1757115845646975 0.0 
-0.16896512792991156 0.12280666123591286 0.0 
-0.17386173677883615 0.07366088288283001 0.0 
-0.16941710574353286 0.03167975159505189 0.0 
-0.18619899290944347 1.1553823551149023e-5 0.0 
-0.19197593615242123 -0.04373038198680404 0.0 
-0.18594377693706007 -0.09593677098457189 0.0 
-0.01087997273497594 0.007604866539748977 0.0 
-0.0283948263254626 0.01933921364733334 0.0 
-0.022962586036123094 0.028217909508893385 0.0 
-0.00832690351631285 0.011501183215268142 0.0 
-0.08251794034557028 -0.04733675471601316 0.0 
-0.05316911345046008 -0.03443853575032361 0.0 
-0.046781175033852096 -0.05021387513848745 0.0 
-0.07691635066092302 -0.07068305735940295 0.0 
-0.16943310770889136 -0.031648507822087994 0.0 
-0.17388352140356264 -0.07363648711525676 0.0 
-0.1355123850402417 0.22602687659391735 0.0 
-0.10121824425231409 0.2066910551109913 0.0 
-0.12287964684840307 0.1721917269518897 0.0 
0.44053326306913093 0.02237147490130808 0.0 
0.7353694023516846 0.029964843935239814 0.0 
0.6038545808327547 -0.03210662852143618 0.0 
-0.13799177053147021 0.129155598901972 0.0 
-0.08367254501630841 0.14792603168578947 0.0 
-0.1007471692858523 0.1175732735091679 0.0 
-0.09713911020885628 -0.010015702493856166 0.0 
-0.07872436493602562 3.7987293375436073e-6 0.0 
-0.055095412818763616 -0.002932951780324173 0.0 
-0.07173729664093913 -0.011672989577830794 0.0 
-0.10226620204519728 0.05212205412767442 0.0 
-0.15311365142496203 0.10787472147318355 0.0 
0.46505998357615913 0.028426806040180257 0.0 
0.702661168675548 1.3390332132205881e-9 0.0 
-0.06233162853846699 0.1641961261885984 0.0 
-0.023382444231531203 0.10184664214509448 0.0 
-0.04663021297675906 0.10719796911481687 0.0 
0.1018891789090756 0.03746225338792479 0.0 
0.2701746183462573 1.5655235887487567e-8 0.0 
0.24195038929912613 0.05200597608018156 0.0 
-0.0729154290939378 0.23325437485778008 0.0 
-0.044286574331515796 0.16776859520690826 0.0 
-0.11006122464064315 -0.14395298512812799 0.0 
0.025158085007868945 -0.5489543333489085 0.0 
0.03019021456648594 -0.2509400373741255 0.0 
0.22044540088418635 0.10897113051800841 0.0 
0.030190310189957978 0.2509400639157988 0.0 
-0.09238832769046466 0.33273923715479004 0.0 
0.03382612972580333 0.24425468544962659 0.0 
-0.08940405987018106 -0.28358449388353085 0.0 
-0.08866952200040255 -0.2975244877981143 0.0 
-0.10622868584919305 -0.3441879447583788 0.0 
-0.09238821348778178 -0.3327390736264619 0.0 
-0.011420717116316275 0.042633188881692596 0.0 
0.0017135553336315433 0.08414266042127344 0.0 
0.220445447442046 -0.10897109783882364 0.0 
0.03382625615066775 -0.24425466003830548 0.0 
0.1676632429425465 -0.12954467831914462 0.0 
0.4405332648172035 -0.022371471740788795 0.0 
0.2419506228431123 -0.05200594763915963 0.0 
0.05211141511295113 -0.12318086987293564 0.0 
-0.03094554568467375 -1.5028806956529636e-7 0.0 
-0.02780724231635555 -0.0015013217921488633 0.0 
-0.009325460500809608 -0.0023409008042628177 0.0 
-0.001980805904427178 -0.0012814648340553779 0.0 
-0.011115535368524054 -0.007771495677391837 0.0 
-0.05293851726228785 -0.01938838588873715 0.0 
-0.028270140254597786 -0.00980606016267168 0.0 
-0.028751256512080207 -0.019577066849634294 0.0 
0.25934103730104613 0.15712967658148258 0.0 
0.6495104407427893 0.1616403656623907 0.0 
-0.021916745929817825 0.0646367780919218 0.0 
-0.0024531803417055355 0.026671559807405928 0.0 
-0.03470472238954024 -0.09440111224902749 0.0 
-0.0442944834654756 -0.1677869026273603 0.0 
0.001710625313151797 -0.08416260951202736 0.0 
-0.03510103992171696 0.061273174875574495 0.0 
-0.06453821154158389 0.09187745532978091 0.0 
-0.08374944361266766 -0.14799433763959677 0.0 
-0.04671651076070115 -0.10732047078443734 0.0 
-0.023421639103269377 -0.10193623445613241 0.0 
-0.06235717331707856 -0.1642275289878344 0.0 
-0.12290640838099211 -0.1722027077401939 0.0 
-0.1380453200472661 -0.1291589968102918 0.0 
-0.100851409292057 -0.1176259074512227 0.0 
-0.04647898221156568 0.04996779669923888 0.0 
-0.013316353999320395 0.030997479967390915 0.0 
0.0020314861997587676 -0.2220450776594983 0.0 
0.25934103253181556 -0.15712967684033302 0.0 
0.016597318533588187 -0.00870102140900431 0.0 
0.025157993127201028 0.5489543093390673 0.0 
-0.11006107510801327 0.14395285724908463 0.0 
-0.10123610195211248 -0.20670486043002406 0.0 
-0.13551772247494376 -0.22602652529387024 0.0 
-0.15534605674052962 -0.17570723547723838 0.0 
-0.14413289875432658 0.04938972486550197 0.0 
-0.13503946256085636 0.019861030233516607 0.0 
-0.1559262084961616 1.3480416927634323e-5 0.0 
-0.030424464594557308 -0.0953991515071054 0.0 
-0.11172200984607022 -0.15883317311890033 0.0 
-0.06424442227965349 -0.20084176861634392 0.0 
-0.04493703045068594 -0.007906507594035848 0.0 
-0.08085586840483441 -0.026851746972788724 0.0 
-0.06472306804067524 -0.09203772168414429 0.0 
-0.11112740469769769 -0.0849193825879755 0.0 
-0.026622457675046902 -0.2073741754448717 0.0 
0.028501363562773052 -0.2085242835956541 0.0 
-0.11306609390714867 -0.2754358991967984 0.0 
-0.07291928317932724 -0.2332613594758854 0.0 
0.10188936264046065 -0.03746217924827344 0.0 
-0.01586105628530238 1.015329517913716e-7 0.0 
-0.01975699836618954 -0.0025830870052001255 0.0 
-0.0007241803330197797 -0.0018566526036367928 0.0 
-0.1350702016524458 -0.019829643037470708 0.0 
-0.14418463118617533 -0.04936410885083235 0.0 
0.016597438233123683 0.00870106651554144 0.0 
-0.10905988155753035 0.028156063746548856 0.0 
-0.0970984789936099 0.010033302945933433 0.0 
-0.11887445426909152 1.0600694139140671e-5 0.0 
-0.07166269406973153 0.011670003278625036 0.0 
-0.05506215548830632 0.0029348950973095054 0.0 
-0.16954695545939846 -0.1519574389402837 0.0 
-0.1457031631319725 -0.20597906903254729 0.0 
0.6495104193764313 -0.16164035686401998 0.0 
-0.11100278245062183 0.08488812114286902 0.0 
-0.0767079827885464 0.07056587796125645 0.0 
-0.00406798642110037 0.009394171062491474 0.0 
-0.10913590828899417 -0.02814334857709126 0.0 
-0.12048692056079009 -0.2553367553749406 0.0 
-0.14516508020056357 0.08695854709271579 0.0 
-0.11396168588755927 -0.05377392580900611 0.0 
-0.0006911262876112103 0.001811097145015435 0.0 
0.0020313812189100343 0.2220451495110421 0.0 
-0.08940444169996 0.283585119237746 0.0 
-0.12048751772783088 0.2553374661964487 0.0 
-0.06424520666184506 0.20084228820706543 0.0 
-0.03532609542712634 -0.061540478628983195 0.0 
-0.022044237801736054 -0.06488219134776173 0.0 
-0.011435187050377101 -0.04269490005763505 0.0 
0.16766309887997424 0.129544766335872 0.0 
0.05211113181681263 0.12318099317529851 0.0 
-0.14522405163234364 -0.08694584419395501 0.0 
-0.16898046932965718 -0.12279425052806407 0.0 
-0.11384881556496729 0.05377168481455353 0.0 
0.6038545670169566 0.0321066322936019 0.0 
-0.027771548723714103 0.0014983062482836554 0.0 
0.46505997586049486 -0.02842681108702413 0.0 
-0.0347036908638401 0.0943974143152024 0.0 
-0.0232946683791604 -0.028566105792357403 0.0 
-0.0135427986774269 -0.031392110499194305 0.0 
-0.1117230998392155 0.1588344463126266 0.0 
-0.14570421859780294 0.2059832449789214 0.0 
0.7353693926376175 -0.029964843414344664 0.0 
-0.026620367862882188 0.20736970195669235 0.0 
-0.11306325924060898 0.2754341324688119 0.0 
-0.08866868898182753 0.2975238783855645 0.0 
0.02850109286693152 0.2085235793114064 0.0 
-0.10622892652318337 0.34418784947880937 0.0 
-0.08069669021748348 0.0268254550054331 0.0 
-0.08232085477319 0.047271406173232326 0.0 
-0.03042573553070365 0.09540000724010998 0.0 
-0.05270585519402708 0.019309714435096124 0.0 
-0.044779376348932344 0.007875918840651995 0.0 
-0.05286500965208175 0.03427603309969749 0.0 
-0.002497470530810227 -0.02683022425222458 0.0 
-0.004132743836243466 -0.009555399464081253 0.0 
-0.008529662419932523 -0.011746584303962134 0.0 
-0.019644858537736745 0.0025595304692538124 0.0 
-0.0019371961543132106 0.0012497226121311203 0.0 
-0.009188182732993825 0.002294134930797055 0.0 
-0.027949824925586605 0.009677539736169328 0.0 
